<?xml version="1.0" encoding="UTF-8" standalone="no"?><!-- Generator: Gravit.io --><svg xmlns="http://www.w3.org/2000/svg" xmlns:xlink="http://www.w3.org/1999/xlink" style="isolation:isolate" viewBox="0 0 600 200" width="600pt" height="200pt"><defs><clipPath id="_clipPath_dODWBsq47GhDxKYjfkiv4urrlyUjuwtA"><rect width="600" height="200"/></clipPath></defs><g clip-path="url(#_clipPath_dODWBsq47GhDxKYjfkiv4urrlyUjuwtA)"><path d=" M 297 115.254 L 297 91.077 C 297 83.448 303.086 72.254 312 72.254 C 320.914 72.254 326.779 83.506 327 91.077 L 327 115.254 L 297 115.254 Z  M 302.877 109.254 L 302.877 88.548 Q 306.602 78.18 311.939 78.254 Q 317.276 78.328 321 88.548 L 321 109.254 L 302.877 109.254 Z " fill-rule="evenodd" fill="rgb(212,175,55)"/><path d=" M 309.561 114.844 L 309.561 123.254 L 315 123.254 L 315 114.844 L 309.561 114.844 Z " fill="rgb(212,175,55)"/><path d=" M 302.877 102.254 L 288.5 102.254 L 291.5 96.254 L 302.877 96.254 L 302.877 102.254 Z  M 321 102.254 L 332.5 102.254 L 335.5 96.254 L 321 96.254 L 321 102.254 Z " fill-rule="evenodd" fill="rgb(212,175,55)"/><path d=" M 288 121.254 L 285 127.254 L 298 127.254 L 301 121.254 L 288 121.254 Z " fill="rgb(212,175,55)"/><path d=" M 301.375 96.077 L 298.375 101.844 L 324 101.844 L 322 96.077 L 301.375 96.077 Z " fill="rgb(212,175,55)"/><path d=" M 318.719 119.254 L 315.561 125.254 L 308.561 125.254 L 305.719 119.254 L 318.719 119.254 Z " fill="rgb(212,175,55)"/><path d=" M 335.561 121.254 L 338.561 127.254 L 325.561 127.254 L 322.561 121.254 L 335.561 121.254 Z " fill="rgb(212,175,55)"/><path d=" M 297 110.254 L 290 123.254 L 297 123.254 L 304 110.254 L 297 110.254 Z " fill="rgb(212,175,55)"/><path d=" M 327 110.254 L 334 123.254 L 327 123.254 L 320 110.254 L 327 110.254 Z " fill="rgb(212,175,55)"/><path d=" M 269.467 126.34 L 258.568 126.34 L 258.568 126.34 Q 246.264 126.34 246.264 114.035 L 246.264 114.035 L 246.264 85.559 L 246.264 85.559 Q 246.264 73.254 258.568 73.254 L 258.568 73.254 L 269.467 73.254 L 269.467 73.254 Q 281.771 73.254 281.771 85.559 L 281.771 85.559 L 281.771 89.426 L 275.092 92.59 L 274.74 92.59 L 274.74 85.559 L 274.74 85.559 Q 274.74 79.582 269.467 79.582 L 269.467 79.582 L 258.568 79.582 L 258.568 79.582 Q 253.295 79.582 253.295 85.559 L 253.295 85.559 L 253.295 114.035 L 253.295 114.035 Q 253.295 120.012 258.568 120.012 L 258.568 120.012 L 269.467 120.012 L 269.467 120.012 Q 274.74 120.012 274.74 114.035 L 274.74 114.035 L 274.74 102.996 L 262.506 102.996 L 262.506 102.645 L 265.354 96.598 L 281.771 96.598 L 281.771 114.035 L 281.771 114.035 Q 281.771 126.34 269.467 126.34 L 269.467 126.34 Z  M 367.904 79.582 L 352.436 79.582 L 352.436 102.082 L 367.904 102.082 L 367.904 102.082 Q 373.178 102.082 373.178 96.105 L 373.178 96.105 L 373.178 85.559 L 373.178 85.559 Q 373.178 79.582 367.904 79.582 L 367.904 79.582 Z  M 345.756 127.746 L 345.404 127.746 L 345.404 75.012 L 349.131 73.254 L 367.904 73.254 L 367.904 73.254 Q 380.209 73.254 380.209 85.559 L 380.209 85.559 L 380.209 96.105 L 380.209 96.105 Q 380.209 107.566 369.557 108.34 L 369.557 108.34 L 381.053 124.828 L 374.865 127.746 L 374.514 127.746 L 360.979 108.41 L 352.436 108.41 L 352.436 124.582 L 345.756 127.746 Z  M 400.389 79.582 L 400.389 120.012 L 415.857 120.012 L 415.857 120.012 Q 421.131 120.012 421.131 114.035 L 421.131 114.035 L 421.131 85.559 L 421.131 85.559 Q 421.131 79.582 415.857 79.582 L 415.857 79.582 L 400.389 79.582 Z  M 415.857 126.34 L 393.357 126.34 L 393.357 75.012 L 397.084 73.254 L 415.857 73.254 L 415.857 73.254 Q 428.162 73.254 428.162 85.559 L 428.162 85.559 L 428.162 114.035 L 428.162 114.035 Q 428.162 126.34 415.857 126.34 L 415.857 126.34 Z  M 471.264 126.34 L 442.225 126.34 L 442.225 75.012 L 445.951 73.254 L 468.24 73.254 L 468.24 73.605 L 465.393 79.652 L 449.256 79.652 L 449.256 96.598 L 468.24 96.598 L 468.24 96.949 L 465.393 102.996 L 449.256 102.996 L 449.256 119.941 L 474.111 119.941 L 474.111 120.293 L 471.264 126.34 Z  M 483.252 127.746 L 482.9 127.746 L 482.9 85.559 L 482.9 85.559 Q 482.9 73.254 495.205 73.254 L 495.205 73.254 L 506.104 73.254 L 506.104 73.254 Q 518.408 73.254 518.408 85.559 L 518.408 85.559 L 518.408 124.582 L 511.729 127.746 L 511.377 127.746 L 511.377 85.559 L 511.377 85.559 Q 511.377 79.582 506.104 79.582 L 506.104 79.582 L 495.205 79.582 L 495.205 79.582 Q 489.932 79.582 489.932 85.559 L 489.932 85.559 L 489.932 124.582 L 483.252 127.746 Z  M 112.74 126.34 L 81.592 126.34 L 81.592 125.988 L 104.338 79.652 L 81.943 79.652 L 81.943 79.301 L 84.791 73.254 L 115.236 73.254 L 115.236 73.605 L 92.385 119.941 L 115.588 119.941 L 115.588 120.293 L 112.74 126.34 Z  M 156.932 126.34 L 127.893 126.34 L 127.893 75.012 L 131.619 73.254 L 153.908 73.254 L 153.908 73.605 L 151.061 79.652 L 134.924 79.652 L 134.924 96.598 L 153.908 96.598 L 153.908 96.949 L 151.061 102.996 L 134.924 102.996 L 134.924 119.941 L 159.779 119.941 L 159.779 120.293 L 156.932 126.34 Z  M 168.92 127.746 L 168.568 127.746 L 168.568 85.559 L 168.568 85.559 Q 168.568 73.254 180.873 73.254 L 180.873 73.254 L 191.771 73.254 L 191.771 73.254 Q 204.076 73.254 204.076 85.559 L 204.076 85.559 L 204.076 124.582 L 197.396 127.746 L 197.045 127.746 L 197.045 85.559 L 197.045 85.559 Q 197.045 79.582 191.771 79.582 L 191.771 79.582 L 180.873 79.582 L 180.873 79.582 Q 175.6 79.582 175.6 85.559 L 175.6 85.559 L 175.6 124.582 L 168.92 127.746 Z " fill="rgb(255,249,251)"/></g></svg>