<svg version="1.1" viewBox="0.0 0.0 605.7532808398951 312.71128608923885" fill="none" stroke="none" stroke-linecap="square" stroke-miterlimit="10" xmlns:xlink="http://www.w3.org/1999/xlink" xmlns="http://www.w3.org/2000/svg"><clipPath id="p.0"><path d="m0 0l605.7533 0l0 312.71127l-605.7533 0l0 -312.71127z" clip-rule="nonzero"/></clipPath><g clip-path="url(#p.0)"><path fill="#000000" fill-opacity="0.0" d="m0 0l605.7533 0l0 312.71127l-605.7533 0z" fill-rule="evenodd"/><path fill="#90a4ae" d="m222.01663 96.09882l0 0c0 -46.70503 37.861908 -84.56693 84.566925 -84.56693l0 0c22.428558 0 43.938477 8.909704 59.79785 24.76908c15.859375 15.859375 24.769073 37.36931 24.769073 59.79785l0 0c0 46.705025 -37.861908 84.56693 -84.566925 84.56693l0 0c-46.705017 0 -84.566925 -37.861908 -84.566925 -84.56693z" fill-rule="evenodd"/><path stroke="#607d8b" stroke-width="8.0" stroke-linejoin="round" stroke-linecap="butt" d="m222.01663 96.09882l0 0c0 -46.70503 37.861908 -84.56693 84.566925 -84.56693l0 0c22.428558 0 43.938477 8.909704 59.79785 24.76908c15.859375 15.859375 24.769073 37.36931 24.769073 59.79785l0 0c0 46.705025 -37.861908 84.56693 -84.566925 84.56693l0 0c-46.705017 0 -84.566925 -37.861908 -84.566925 -84.56693z" fill-rule="evenodd"/><path fill="#7394a4" d="m313.1942 15.104987l-11.496063 0c0 0 -3.0517578E-5 9.536743E-6 -6.1035156E-5 2.7656555E-5c0 1.8119812E-5 -3.0517578E-5 4.2915344E-5 -3.0517578E-5 6.771088E-5l9.1552734E-5 90.74007c0 5.340576E-5 6.1035156E-5 9.1552734E-5 1.2207031E-4 9.1552734E-5l11.495941 -9.1552734E-5l0 0c6.1035156E-5 0 1.2207031E-4 -4.5776367E-5 1.2207031E-4 -9.918213E-5l-1.2207031E-4 -90.74006l0 0c0 -5.340576E-5 -3.0517578E-5 -9.6321106E-5 -9.1552734E-5 -9.6321106E-5z" fill-rule="evenodd"/><path fill="#757575" d="m674.1155 565.3634l47.30713 -81.98425l21.322815 12.314941l-47.307068 81.98425z" fill-rule="evenodd"/><path stroke="#616161" stroke-width="8.0" stroke-linejoin="round" stroke-linecap="butt" d="m674.1155 565.3634l47.30713 -81.98425l21.322815 12.314941l-47.307068 81.98425z" fill-rule="evenodd"/><path fill="#757575" d="m417.94492 174.73499l79.63779 -116.34645l-60.897644 127.18109z" fill-rule="evenodd"/><path stroke="#838383" stroke-width="8.0" stroke-linejoin="round" stroke-linecap="butt" d="m417.94492 174.73499l79.63779 -116.34645l-60.897644 127.18109z" fill-rule="evenodd"/><path fill="#757575" d="m195.22075 178.93446l-79.6378 -116.34646l60.897644 127.1811z" fill-rule="evenodd"/><path stroke="#838383" stroke-width="8.0" stroke-linejoin="round" stroke-linecap="butt" d="m195.22075 178.93446l-79.6378 -116.34646l60.897644 127.1811z" fill-rule="evenodd"/><path fill="#757575" d="m108.92913 225.05511l398.01575 0l0 84.66141l-398.01575 0z" fill-rule="evenodd"/><path stroke="#616161" stroke-width="8.0" stroke-linejoin="round" stroke-linecap="butt" d="m108.92913 225.05511l398.01575 0l0 84.66141l-398.01575 0z" fill-rule="evenodd"/><path fill="#bdbdbd" d="m390.34695 108.02362l-165.5548 0l-92.26198 92.26198l0 109.4388l0 0l350.07874 0l0 0l0 -109.4388z" fill-rule="evenodd"/><path stroke="#616161" stroke-width="8.0" stroke-linejoin="round" stroke-linecap="butt" d="m390.34695 108.02362l-165.5548 0l-92.26198 92.26198l0 109.4388l0 0l350.07874 0l0 0l0 -109.4388z" fill-rule="evenodd"/><path fill="#9e9e9e" d="m489.44656 60.828365l0 0c0 -4.8357544 3.9201355 -8.755905 8.75589 -8.755905l0 0c2.3222046 0 4.5493164 0.922493 6.1913757 2.5645447c1.6420288 1.6420517 2.5645447 3.8691483 2.5645447 6.1913605l0 0c0 4.8357506 -3.920166 8.755901 -8.75592 8.755901l0 0c-4.8357544 0 -8.75589 -3.9201508 -8.75589 -8.755901z" fill-rule="evenodd"/><path stroke="#838383" stroke-width="8.0" stroke-linejoin="round" stroke-linecap="butt" d="m489.44656 60.828365l0 0c0 -4.8357544 3.9201355 -8.755905 8.75589 -8.755905l0 0c2.3222046 0 4.5493164 0.922493 6.1913757 2.5645447c1.6420288 1.6420517 2.5645447 3.8691483 2.5645447 6.1913605l0 0c0 4.8357506 -3.920166 8.755901 -8.75592 8.755901l0 0c-4.8357544 0 -8.75589 -3.9201508 -8.75589 -8.755901z" fill-rule="evenodd"/><path fill="#9e9e9e" d="m517.523 124.11968l0 0c-15.29837 22.084587 -45.490845 27.80088 -67.80353 12.837135c-22.312683 -14.96373 -28.483429 -45.066612 -13.857727 -67.60231z" fill-rule="evenodd"/><path stroke="#838383" stroke-width="8.0" stroke-linejoin="round" stroke-linecap="butt" d="m517.523 124.11968l0 0c-15.29837 22.084587 -45.490845 27.80088 -67.80353 12.837135c-22.312683 -14.96373 -28.483429 -45.066612 -13.857727 -67.60231z" fill-rule="evenodd"/><path fill="#9e9e9e" d="m123.71911 65.02784l0 0c0 -4.8357544 -3.9201584 -8.755905 -8.755913 -8.755905l0 0c-2.3222046 0 -4.549309 0.922493 -6.191353 2.5645447c-1.6420517 1.6420517 -2.5645523 3.8691483 -2.5645523 6.1913605l0 0c0 4.8357544 3.9201584 8.755905 8.755905 8.755905l0 0c4.8357544 0 8.755913 -3.9201508 8.755913 -8.755905z" fill-rule="evenodd"/><path stroke="#838383" stroke-width="8.0" stroke-linejoin="round" stroke-linecap="butt" d="m123.71911 65.02784l0 0c0 -4.8357544 -3.9201584 -8.755905 -8.755913 -8.755905l0 0c-2.3222046 0 -4.549309 0.922493 -6.191353 2.5645447c-1.6420517 1.6420517 -2.5645523 3.8691483 -2.5645523 6.1913605l0 0c0 4.8357544 3.9201584 8.755905 8.755905 8.755905l0 0c4.8357544 0 8.755913 -3.9201508 8.755913 -8.755905z" fill-rule="evenodd"/><path fill="#9e9e9e" d="m93.35872 124.69001l0 0c13.314888 23.333641 42.893692 31.659828 66.425385 18.698174c23.531693 -12.961655 32.302795 -42.411583 19.697327 -66.13599z" fill-rule="evenodd"/><path stroke="#838383" stroke-width="8.0" stroke-linejoin="round" stroke-linecap="butt" d="m93.35872 124.69001l0 0c13.314888 23.333641 42.893692 31.659828 66.425385 18.698174c23.531693 -12.961655 32.302795 -42.411583 19.697327 -66.13599z" fill-rule="evenodd"/><path fill="#9e9e9e" d="m721.8924 555.1286l-56.22046 0l-16.393738 16.393738l0 16.393677l0 0l89.00787 0l0 0l0 -16.393677z" fill-rule="evenodd"/><path stroke="#757575" stroke-width="8.0" stroke-linejoin="round" stroke-linecap="butt" d="m721.8924 555.1286l-56.22046 0l-16.393738 16.393738l0 16.393677l0 0l89.00787 0l0 0l0 -16.393677z" fill-rule="evenodd"/><path fill="#9e9e9e" d="m767.53046 429.6168l0 0l0 0c4.611023 2.660492 7.975891 7.0435486 9.354431 12.184906c1.378479 5.1413574 0.65771484 10.619843 -2.0037842 15.230286l-41.964844 72.69501c-6.1035156E-5 1.8310547E-4 -3.0517578E-4 2.4414062E-4 -4.272461E-4 1.2207031E-4l-34.77118 -20.06308l0 0c-1.8310547E-4 -9.1552734E-5 -2.4414062E-4 -3.0517578E-4 -1.2207031E-4 -4.5776367E-4l41.964966 -72.69458l0 0c5.5422363 -9.600769 17.81903 -12.892456 27.42096 -7.3522034z" fill-rule="evenodd"/><path stroke="#757575" stroke-width="8.0" stroke-linejoin="round" stroke-linecap="butt" d="m767.53046 429.6168l0 0l0 0c4.611023 2.660492 7.975891 7.0435486 9.354431 12.184906c1.378479 5.1413574 0.65771484 10.619843 -2.0037842 15.230286l-41.964844 72.69501c-6.1035156E-5 1.8310547E-4 -3.0517578E-4 2.4414062E-4 -4.272461E-4 1.2207031E-4l-34.77118 -20.06308l0 0c-1.8310547E-4 -9.1552734E-5 -2.4414062E-4 -3.0517578E-4 -1.2207031E-4 -4.5776367E-4l41.964966 -72.69458l0 0c5.5422363 -9.600769 17.81903 -12.892456 27.42096 -7.3522034z" fill-rule="evenodd"/><path fill="#757575" d="m1192.3191 563.1246l-47.307007 -81.98428l-21.322876 12.314972l47.30713 81.98425z" fill-rule="evenodd"/><path stroke="#616161" stroke-width="8.0" stroke-linejoin="round" stroke-linecap="butt" d="m1192.3191 563.1246l-47.307007 -81.98428l-21.322876 12.314972l47.30713 81.98425z" fill-rule="evenodd"/><path fill="#9e9e9e" d="m1144.5422 552.8898l56.22046 0l16.393799 16.393677l0 16.393738l0 0l-89.007935 0l0 0l0 -16.393738z" fill-rule="evenodd"/><path stroke="#757575" stroke-width="8.0" stroke-linejoin="round" stroke-linecap="butt" d="m1144.5422 552.8898l56.22046 0l16.393799 16.393677l0 16.393738l0 0l-89.007935 0l0 0l0 -16.393738z" fill-rule="evenodd"/><path fill="#9e9e9e" d="m1098.9042 427.37793l0 0l0 0c-4.610962 2.6605225 -7.97583 7.043579 -9.35437 12.184906c-1.37854 5.1413574 -0.65771484 10.619873 2.003662 15.230316l41.964966 72.69501c0 1.8310547E-4 2.4414062E-4 2.4414062E-4 3.6621094E-4 1.2207031E-4l34.77124 -20.06311l0 0c1.2207031E-4 -9.1552734E-5 2.4414062E-4 -3.0517578E-4 1.2207031E-4 -4.5776367E-4l-41.964966 -72.69455l0 0c-5.5422363 -9.600769 -17.819092 -12.892487 -27.42102 -7.352234z" fill-rule="evenodd"/><path stroke="#757575" stroke-width="8.0" stroke-linejoin="round" stroke-linecap="butt" d="m1098.9042 427.37793l0 0l0 0c-4.610962 2.6605225 -7.97583 7.043579 -9.35437 12.184906c-1.37854 5.1413574 -0.65771484 10.619873 2.003662 15.230316l41.964966 72.69501c0 1.8310547E-4 2.4414062E-4 2.4414062E-4 3.6621094E-4 1.2207031E-4l34.77124 -20.06311l0 0c1.2207031E-4 -9.1552734E-5 2.4414062E-4 -3.0517578E-4 1.2207031E-4 -4.5776367E-4l-41.964966 -72.69455l0 0c-5.5422363 -9.600769 -17.819092 -12.892487 -27.42102 -7.352234z" fill-rule="evenodd"/><path fill="#ff9800" d="m934.2145 507.45267c-27.302612 0.15725708 -68.631226 -20.794891 -84.152466 -11.342682c-15.521301 9.45224 -12.715759 47.10382 -8.975281 68.05597c3.7404175 20.952148 19.44989 37.49231 31.417908 57.65686c11.968018 20.164612 30.29242 45.529175 40.390198 63.33075c10.097839 17.801514 8.976257 50.72534 20.196594 43.478516c11.220337 -7.246826 32.16516 -61.28131 47.125427 -86.959595c14.960266 -25.678223 37.026062 -42.69226 42.63623 -67.109924c5.6101685 -24.417664 5.7979126 -68.21112 -8.97522 -79.39612c-14.773132 -11.184967 -52.36078 12.128967 -79.66339 12.286224z" fill-rule="evenodd"/><path stroke="#f57c00" stroke-width="12.0" stroke-linejoin="round" stroke-linecap="butt" d="m934.2145 507.45267c-27.302612 0.15725708 -68.631226 -20.794891 -84.152466 -11.342682c-15.521301 9.45224 -12.715759 47.10382 -8.975281 68.05597c3.7404175 20.952148 19.44989 37.49231 31.417908 57.65686c11.968018 20.164612 30.29242 45.529175 40.390198 63.33075c10.097839 17.801514 8.976257 50.72534 20.196594 43.478516c11.220337 -7.246826 32.16516 -61.28131 47.125427 -86.959595c14.960266 -25.678223 37.026062 -42.69226 42.63623 -67.109924c5.6101685 -24.417664 5.7979126 -68.21112 -8.97522 -79.39612c-14.773132 -11.184967 -52.36078 12.128967 -79.66339 12.286224z" fill-rule="evenodd"/><path fill="#ff5722" d="m933.17175 505.10468c-16.0 1.8320312 -33.83374 -5.8635254 -43.97113 1.4645691c-10.137329 7.3280945 -17.464111 27.970245 -16.853027 42.503937c0.611145 14.533691 11.970276 29.187195 20.519714 44.69818c8.549438 15.510925 23.92517 37.83246 30.776917 48.36743c6.8516846 10.534973 4.51355 21.300964 10.333313 14.842529c5.819763 -6.458435 15.071289 -36.951904 24.585327 -53.5932c9.513977 -16.641296 28.059021 -28.286072 32.498657 -46.254578c4.439636 -17.968506 3.7874146 -52.88495 -5.860901 -61.556427c-9.648254 -8.671478 -36.02887 7.695526 -52.02887 9.527557z" fill-rule="evenodd"/><path fill="#ababab" d="m305.2467 166.6063l0 0l0 0c10.859283 0 21.273773 4.3138275 28.952423 11.992477c7.67865 7.678665 11.992462 18.093155 11.992462 28.952408l0 102.17322c0 3.9672852E-4 -3.0517578E-4 7.019043E-4 -6.713867E-4 7.019043E-4l-81.88907 -7.019043E-4l0 0c-3.9672852E-4 0 -7.019043E-4 -3.0517578E-4 -7.019043E-4 -6.713867E-4l7.019043E-4 -102.17255l0 0c0 -22.613235 18.331635 -40.944885 40.944855 -40.944885z" fill-rule="evenodd"/><path fill="#ffeb3b" d="m936.91626 486.6781c-11.681946 1.3377075 -24.700745 -4.2795105 -32.102356 1.0708923c-7.4015503 5.3503723 -12.752808 20.419922 -12.307068 31.031464c0.44573975 10.611572 8.739258 21.312378 14.981628 32.637817c6.2423096 11.325439 18.22174 29.112 22.472412 35.31494c4.2506714 6.203003 -0.446167 7.253723 3.0314941 1.9028931c3.4777222 -5.35083 10.136047 -23.346008 17.834656 -34.007874c7.6986084 -10.661865 24.343811 -17.479004 28.356934 -29.963257c4.0131226 -12.484253 2.7664185 -38.611115 -4.2781982 -44.94226c-7.0446167 -6.3311462 -26.307495 5.617676 -37.989502 6.9553833z" fill-rule="evenodd"/><path fill="#9e9e9e" d="m1063.189 508.99213l-256.063 0l-92.44092 -92.44095l0 -92.44095l0 0l440.94482 0l0 0l0 92.44095z" fill-rule="evenodd"/><path stroke="#616161" stroke-width="8.0" stroke-linejoin="round" stroke-linecap="butt" d="m1063.189 508.99213l-256.063 0l-92.44092 -92.44095l0 -92.44095l0 0l440.94482 0l0 0l0 92.44095z" fill-rule="evenodd"/><path fill="#757575" d="m1070.8254 503.45932l-272.78735 0l-13.133911 13.133881l0 13.13385l0 0l299.05518 0l0 0l0 -13.13385z" fill-rule="evenodd"/><path stroke="#616161" stroke-width="8.0" stroke-linejoin="round" stroke-linecap="butt" d="m1070.8254 503.45932l-272.78735 0l-13.133911 13.133881l0 13.13385l0 0l299.05518 0l0 0l0 -13.13385z" fill-rule="evenodd"/><path fill="#959595" d="m811.76904 354.06036l81.88977 0c1.8310547E-4 0 3.0517578E-4 6.1035156E-5 4.8828125E-4 2.1362305E-4c1.2207031E-4 1.2207031E-4 1.8310547E-4 3.0517578E-4 1.8310547E-4 4.5776367E-4l-6.713867E-4 125.857605c0 3.6621094E-4 -3.0517578E-4 6.713867E-4 -7.324219E-4 6.713867E-4l-81.88904 -6.713867E-4l0 0c-3.6621094E-4 0 -6.713867E-4 -3.0517578E-4 -6.713867E-4 -7.019043E-4l6.713867E-4 -125.857574l0 0c0 -3.6621094E-4 3.0517578E-4 -6.713867E-4 6.713867E-4 -6.713867E-4z" fill-rule="evenodd"/><path fill="#959595" d="m972.19556 353.98294l81.88977 0c1.2207031E-4 0 3.6621094E-4 6.1035156E-5 4.8828125E-4 2.1362305E-4c1.2207031E-4 1.2207031E-4 1.2207031E-4 2.746582E-4 1.2207031E-4 4.5776367E-4l-6.1035156E-4 125.857605c0 3.6621094E-4 -3.6621094E-4 6.713867E-4 -7.324219E-4 6.713867E-4l-81.88904 -6.713867E-4l0 0c-3.6621094E-4 0 -6.713867E-4 -3.0517578E-4 -6.713867E-4 -7.019043E-4l6.713867E-4 -125.857574l0 0c0 -3.6621094E-4 3.0517578E-4 -6.713867E-4 6.713867E-4 -6.713867E-4z" fill-rule="evenodd"/></g></svg>