<svg xmlns="http://www.w3.org/2000/svg" xmlns:xlink="http://www.w3.org/1999/xlink" viewBox="0 0 597.887 271.409" fill="none" stroke="none" stroke-linecap="square" stroke-miterlimit="10" xmlns:v="https://vecta.io/nano"><style><![CDATA[.B{fill-rule:evenodd}.C{stroke-linejoin:round}.D{stroke-width:8}.E{fill:#9e9e9e}.F{fill:#757575}.G{stroke:#616161}.H{stroke:#838383}.I{stroke:#757575}]]></style><clipPath id="A"><path d="M0 0h597.887v271.41H0V0z"/></clipPath><g clip-path="url(#A)"><g class="B"><path fill="#000" fill-opacity="0" d="M0 0h597.887v271.41H0z"/><use xlink:href="#C" fill="#90a4ae"/></g><use xlink:href="#C" stroke="#607d8b" class="C D"/><g class="B"><path fill="#7394a4" d="M291.32-378.244h-11.496v90.74h11.496v-90.74z"/><path d="M-617.995 233.623l47.307-81.984 21.323 12.315-47.307 81.984z" class="F"/></g><path d="M-617.995 233.623l47.307-81.984 21.323 12.315-47.307 81.984z" class="C D G"/><path d="M396.07-218.614L475.71-334.96 414.81-207.78z" class="B F"/><path d="M396.07-218.614L475.71-334.96 414.81-207.78z" class="C D H"/><path d="M173.347-214.415L93.71-330.76l60.898 127.18z" class="B F"/><path d="M173.347-214.415L93.71-330.76l60.898 127.18z" class="C D H"/><path d="M87.055-168.294H485.07v84.66H87.055z" class="B F"/><path d="M87.055-168.294H485.07v84.66H87.055z" class="C D G"/><path fill="#bdbdbd" d="M368.473-285.325H202.918l-92.262 92.262v109.44h350.08v-109.44z" class="B"/><path d="M368.473-285.325H202.918l-92.262 92.262v109.44h350.08v-109.44z" class="C D G"/><use xlink:href="#D" class="B E"/><use xlink:href="#D" class="C D H"/><use xlink:href="#E" class="B E"/><use xlink:href="#E" class="C D H"/><use xlink:href="#F" class="B E"/><use xlink:href="#F" class="C D H"/><use xlink:href="#G" class="B E"/><use xlink:href="#G" class="C D H"/><path d="M-570.218 223.388h-56.22l-16.394 16.394v16.394h89.008v-16.394z" class="B E"/><path d="M-570.218 223.388h-56.22l-16.394 16.394v16.394h89.008v-16.394z" class="C D I"/><use xlink:href="#H" class="B E"/><use xlink:href="#H" class="C D I"/><path d="M-99.79 231.384l-47.307-81.984-21.323 12.315 47.307 81.984z" class="B F"/><path d="M-99.79 231.384l-47.307-81.984-21.323 12.315 47.307 81.984z" class="C D G"/><path d="M-147.568 221.15h56.22l16.394 16.394v16.394h-89.008v-16.394z" class="B E"/><path d="M-147.568 221.15h56.22l16.394 16.394v16.394h-89.008v-16.394z" class="C D I"/><use xlink:href="#I" class="B E"/><use xlink:href="#I" class="C D I"/><use xlink:href="#J" fill="#ff9800" class="B"/><use xlink:href="#J" stroke="#f57c00" stroke-width="12" class="C"/><g class="B"><path fill="#ff5722" d="M286.97 27.22c-16 1.832-33.834-5.864-43.97 1.465s-17.464 27.97-16.853 42.504 11.97 29.187 20.52 44.698 23.925 37.832 30.777 48.367 4.514 21.3 10.333 14.843 15.07-36.952 24.585-53.593 28.06-28.286 32.5-46.255 3.787-52.885-5.86-61.556-36.03 7.696-52.03 9.528z"/><path fill="#ababab" d="M283.373-226.743h0c10.86 0 21.274 4.314 28.952 11.992s11.992 18.093 11.992 28.952v102.173h-81.9v-102.173c0-22.613 18.332-40.945 40.945-40.945z"/><path fill="#ffeb3b" d="M290.714 8.794c-11.682 1.338-24.7-4.28-32.102 1.07s-12.753 20.42-12.307 31.03 8.74 21.312 14.982 32.638 18.222 29.112 22.472 35.315-.446 7.254 3.03 1.903 10.136-23.346 17.835-34.008 24.344-17.48 28.357-29.963 2.766-38.61-4.278-44.942-26.308 5.618-38 6.955z"/><path d="M-228.92 177.252h-256.063l-92.44-92.44V-7.63h440.945v92.44z" class="E"/></g><path d="M-228.92 177.252h-256.063l-92.44-92.44V-7.63h440.945v92.44z" class="C D G"/><path d="M-221.285 171.72h-272.787l-13.134 13.134v13.134h299.055v-13.134z" class="B F"/><path d="M-221.285 171.72h-272.787l-13.134 13.134v13.134h299.055v-13.134z" class="C D G"/><g fill="#959595" class="B"><path d="M-480.34 22.32h81.9v125.858h-81.9V22.32zm160.425-.077h81.9V148.1h-81.9V22.243z"/></g></g><defs ><path id="C" d="M200.143-297.25h0c0-46.705 37.862-84.567 84.567-84.567h0c22.43 0 43.938 8.9 59.798 24.77s24.77 37.37 24.77 59.798h0c0 46.705-37.862 84.567-84.567 84.567h0c-46.705 0-84.567-37.862-84.567-84.567z"/><path id="D" d="M467.573-332.52h0a8.76 8.76 0 0 1 8.756-8.756h0c2.322 0 4.55.922 6.19 2.565s2.565 3.87 2.565 6.19h0a8.76 8.76 0 0 1-8.756 8.756h0a8.76 8.76 0 0 1-8.756-8.756z"/><path id="E" d="M495.65-269.23h0c-15.298 22.085-45.49 27.8-67.803 12.837s-28.483-45.067-13.858-67.602z"/><path id="F" d="M101.845-328.32h0a8.76 8.76 0 0 0-8.756-8.756h0c-2.322 0-4.55.922-6.19 2.565s-2.565 3.87-2.565 6.19h0a8.76 8.76 0 0 0 8.756 8.756h0a8.76 8.76 0 0 0 8.756-8.756z"/><path id="G" d="M71.485-268.66h0C84.8-245.325 114.378-237 137.9-249.96s32.303-42.412 19.697-66.136z"/><path id="H" d="M-524.58 97.877h0a20.07 20.07 0 0 1 7.351 27.415l-41.965 72.695-34.772-20.063L-552 105.23c5.542-9.6 17.82-12.892 27.42-7.352z"/><path id="I" d="M-193.206 95.638h0a20.07 20.07 0 0 0-7.351 27.415l41.965 72.695 34.772-20.063L-165.785 103c-5.542-9.6-17.82-12.892-27.42-7.352z"/><path id="J" d="M288.012 29.568c-27.303.157-68.63-20.795-84.153-11.343s-12.716 47.104-8.975 68.056 19.45 37.492 31.418 57.657 30.292 45.53 40.4 63.33 8.976 50.725 20.197 43.48 32.165-61.28 47.125-86.96 37.026-42.692 42.636-67.1 5.798-68.21-8.975-79.396-52.36 12.13-79.663 12.286z"/></defs></svg>