<svg xmlns="http://www.w3.org/2000/svg" viewBox="464.784 130.23 482.432 51.77" width="643.243" height="69.027" xmlns:v="https://vecta.io/nano"><style><![CDATA[.B{fill:#e0e0e0}.C{stroke-width:2}.D{stroke:#bdbdbd}.E{stroke-linejoin:round}.F{stroke-linecap:round}.G{stroke-miterlimit:3}.H{fill:#bdbdbd}]]></style><defs><clipPath id="A"><path d="M464.784 130.23h482.432V182H464.784z"/></clipPath></defs><g clip-path="url(#A)"><g class="B"><path d="M947.216 182C879.9 166.297 796.392 157 706 157s-173.9 9.297-241.216 25h482.432z"/><path d="M532 173.164q6.795-7.432 6-12.837l18-2.14q1.795 7.1 9 12.125" vector-effect="non-scaling-stroke" class="C D E F G"/></g><path d="M536.938 160.116c-.202-1.028 4.12-2.31 9.647-2.864s10.178-.167 10.38.86-4.12 2.31-9.648 2.864-10.177.167-10.38-.86z" class="H"/><path d="M601 164.832q4.118-3.6 3.636-6.22l10.91-1.037q1.09 3.44 5.455 5.875" vector-effect="non-scaling-stroke" class="B C D E F G"/><path d="M603.993 158.5c-.123-.498 2.497-1.12 5.846-1.388s6.17-.08 6.29.417-2.497 1.12-5.847 1.388-6.168.08-6.3-.417z" class="H"/><path d="M777.78 162.367q8.618-5.257 8.217-9.86l21.126.66q1.398 6.145 9.284 11.298" vector-effect="non-scaling-stroke" class="B C D E F G"/><path d="M784.784 152.19c-.135-.88 5.013-1.362 11.49-1.073s11.844 1.24 11.98 2.122-5.013 1.363-11.49 1.073-11.844-1.24-11.98-2.122z" class="H"/><path d="M876 177.582q-6.795-7.432-6-12.838l-18-2.14q-1.795 7.1-9 12.124" vector-effect="non-scaling-stroke" class="B C D E F G"/><path d="M871.062 164.534c.202-1.028-4.12-2.31-9.647-2.864s-10.178-.167-10.38.86 4.12 2.31 9.648 2.864 10.177.167 10.38-.86z" class="H"/><path d="M692.445 165.93q7.48-5.9 7.214-10.83l18.102.034q1.095 6.542 7.768 11.813" vector-effect="non-scaling-stroke" class="B C D E F G"/><path d="M698.623 154.8c-.1-.94 4.322-1.62 9.87-1.517s10.134.95 10.234 1.892-4.32 1.62-9.87 1.517-10.134-.952-10.235-1.892z" class="H"/></g></svg>