<?xml version="1.0" encoding="UTF-8" standalone="no"?><!-- Generator: Gravit.io --><svg xmlns="http://www.w3.org/2000/svg" xmlns:xlink="http://www.w3.org/1999/xlink" style="isolation:isolate" viewBox="0 0 940 788" width="940pt" height="788pt"><defs><clipPath id="_clipPath_NBphgSTkGgoSoOx6ebfEbXvz0JAPiQER"><rect width="940" height="788"/></clipPath></defs><g clip-path="url(#_clipPath_NBphgSTkGgoSoOx6ebfEbXvz0JAPiQER)"><g style="isolation:isolate"><rect x="-11" y="-12" width="970" height="822" transform="matrix(1,0,0,1,0,0)" fill="rgb(33,33,33)"/><circle vector-effect="non-scaling-stroke" cx="795" cy="611" r="2" fill="rgb(255,235,59)"/><circle vector-effect="non-scaling-stroke" cx="761" cy="555" r="2" fill="rgb(255,235,59)"/><circle vector-effect="non-scaling-stroke" cx="904" cy="667" r="2" fill="rgb(255,235,59)"/><path d=" M 785 135 C 785 136.104 784.104 137 783 137 C 781.896 137 781 136.104 781 135 C 781 133.896 781.896 133 783 133 C 784.104 133 785 133.896 785 135 Z " fill="rgb(255,235,59)"/><path d=" M 559 137 C 559 138.104 558.104 139 557 139 C 555.896 139 555 138.104 555 137 C 555 135.896 555.896 135 557 135 C 558.104 135 559 135.896 559 137 Z " fill="rgb(255,235,59)"/><path d=" M 469 734 C 469 735.104 468.104 736 467 736 C 465.896 736 465 735.104 465 734 C 465 732.896 465.896 732 467 732 C 468.104 732 469 732.896 469 734 Z " fill="rgb(255,235,59)"/><circle vector-effect="non-scaling-stroke" cx="845" cy="581" r="2" fill="rgb(255,235,59)"/><path d=" M 735 165 C 735 166.104 734.104 167 733 167 C 731.896 167 731 166.104 731 165 C 731 163.896 731.896 163 733 163 C 734.104 163 735 163.896 735 165 Z " fill="rgb(255,235,59)"/><path d=" M 509 167 C 509 168.104 508.104 169 507 169 C 505.896 169 505 168.104 505 167 C 505 165.896 505.896 165 507 165 C 508.104 165 509 165.896 509 167 Z " fill="rgb(255,235,59)"/><circle vector-effect="non-scaling-stroke" cx="865" cy="681" r="2" fill="rgb(255,235,59)"/><path d=" M 715 65 C 715 66.104 714.104 67 713 67 C 711.896 67 711 66.104 711 65 C 711 63.896 711.896 63 713 63 C 714.104 63 715 63.896 715 65 Z " fill="rgb(255,235,59)"/><path d=" M 743 295 C 743 296.104 742.104 297 741 297 C 739.896 297 739 296.104 739 295 C 739 293.896 739.896 293 741 293 C 742.104 293 743 293.896 743 295 Z " fill="rgb(255,235,59)"/><path d=" M 522 74.5 C 522 75.604 521.104 76.5 520 76.5 C 518.896 76.5 518 75.604 518 74.5 C 518 73.396 518.896 72.5 520 72.5 C 521.104 72.5 522 73.396 522 74.5 Z " fill="rgb(255,235,59)"/><path d=" M 625 662 C 625 663.104 624.104 664 623 664 C 621.896 664 621 663.104 621 662 C 621 660.896 621.896 660 623 660 C 624.104 660 625 660.896 625 662 Z " fill="rgb(255,235,59)"/><path d=" M 489 67 C 489 68.104 488.104 69 487 69 C 485.896 69 485 68.104 485 67 C 485 65.896 485.896 65 487 65 C 488.104 65 489 65.896 489 67 Z " fill="rgb(255,235,59)"/><path d=" M 399 664 C 399 665.104 398.104 666 397 666 C 395.896 666 395 665.104 395 664 C 395 662.896 395.896 662 397 662 C 398.104 662 399 662.896 399 664 Z " fill="rgb(255,235,59)"/><circle vector-effect="non-scaling-stroke" cx="735" cy="598" r="2" fill="rgb(255,235,59)"/><path d=" M 845 148 C 845 149.104 844.104 150 843 150 C 841.896 150 841 149.104 841 148 C 841 146.896 841.896 146 843 146 C 844.104 146 845 146.896 845 148 Z " fill="rgb(255,235,59)"/><path d=" M 843 182 C 843 183.104 842.104 184 841 184 C 839.896 184 839 183.104 839 182 C 839 180.896 839.896 180 841 180 C 842.104 180 843 180.896 843 182 Z " fill="rgb(255,235,59)"/><path d=" M 849 406 C 849 407.104 848.104 408 847 408 C 845.896 408 845 407.104 845 406 C 845 404.896 845.896 404 847 404 C 848.104 404 849 404.896 849 406 Z " fill="rgb(255,235,59)"/><path d=" M 619 150 C 619 151.104 618.104 152 617 152 C 615.896 152 615 151.104 615 150 C 615 148.896 615.896 148 617 148 C 618.104 148 619 148.896 619 150 Z " fill="rgb(255,235,59)"/><path d=" M 529 747 C 529 748.104 528.104 749 527 749 C 525.896 749 525 748.104 525 747 C 525 745.896 525.896 745 527 745 C 528.104 745 529 745.896 529 747 Z " fill="rgb(255,235,59)"/><circle vector-effect="non-scaling-stroke" cx="834" cy="749" r="2" fill="rgb(255,235,59)"/><path d=" M 748 15 C 748 16.104 747.104 17 746 17 C 744.896 17 744 16.104 744 15 C 744 13.896 744.896 13 746 13 C 747.104 13 748 13.896 748 15 Z " fill="rgb(255,235,59)"/><path d=" M 658 612 C 658 613.104 657.104 614 656 614 C 654.896 614 654 613.104 654 612 C 654 610.896 654.896 610 656 610 C 657.104 610 658 610.896 658 612 Z " fill="rgb(255,235,59)"/><path d=" M 522 17 C 522 18.104 521.104 19 520 19 C 518.896 19 518 18.104 518 17 C 518 15.896 518.896 15 520 15 C 521.104 15 522 15.896 522 17 Z " fill="rgb(255,235,59)"/><path d=" M 432 614 C 432 615.104 431.104 616 430 616 C 428.896 616 428 615.104 428 614 C 428 612.896 428.896 612 430 612 C 431.104 612 432 612.896 432 614 Z " fill="rgb(255,235,59)"/><circle vector-effect="non-scaling-stroke" cx="680" cy="723" r="2" fill="rgb(255,235,59)"/><path d=" M 900 23 C 900 24.104 899.104 25 898 25 C 896.896 25 896 24.104 896 23 C 896 21.896 896.896 21 898 21 C 899.104 21 900 21.896 900 23 Z " fill="rgb(255,235,59)"/><path d=" M 674 25 C 674 26.104 673.104 27 672 27 C 670.896 27 670 26.104 670 25 C 670 23.896 670.896 23 672 23 C 673.104 23 674 23.896 674 25 Z " fill="rgb(255,235,59)"/><path d=" M 702 255 C 702 256.104 701.104 257 700 257 C 698.896 257 698 256.104 698 255 C 698 253.896 698.896 253 700 253 C 701.104 253 702 253.896 702 255 Z " fill="rgb(255,235,59)"/><path d=" M 584 622 C 584 623.104 583.104 624 582 624 C 580.896 624 580 623.104 580 622 C 580 620.896 580.896 620 582 620 C 583.104 620 584 620.896 584 622 Z " fill="rgb(255,235,59)"/><circle vector-effect="non-scaling-stroke" cx="753" cy="694" r="2" fill="rgb(255,235,59)"/><path d=" M 827 52 C 827 53.104 826.104 54 825 54 C 823.896 54 823 53.104 823 52 C 823 50.896 823.896 50 825 50 C 826.104 50 827 50.896 827 52 Z " fill="rgb(255,235,59)"/><path d=" M 855 282 C 855 283.104 854.104 284 853 284 C 851.896 284 851 283.104 851 282 C 851 280.896 851.896 280 853 280 C 854.104 280 855 280.896 855 282 Z " fill="rgb(255,235,59)"/><path d=" M 829 304 C 829 305.104 828.104 306 827 306 C 825.896 306 825 305.104 825 304 C 825 302.896 825.896 302 827 302 C 828.104 302 829 302.896 829 304 Z " fill="rgb(255,235,59)"/><path d=" M 601 54 C 601 55.104 600.104 56 599 56 C 597.896 56 597 55.104 597 54 C 597 52.896 597.896 52 599 52 C 600.104 52 601 52.896 601 54 Z " fill="rgb(255,235,59)"/><path d=" M 511 651 C 511 652.104 510.104 653 509 653 C 507.896 653 507 652.104 507 651 C 507 649.896 507.896 649 509 649 C 510.104 649 511 649.896 511 651 Z " fill="rgb(255,235,59)"/><circle vector-effect="non-scaling-stroke" cx="814" cy="523" r="2" fill="rgb(255,235,59)"/><circle vector-effect="non-scaling-stroke" cx="776" cy="527" r="2" fill="rgb(255,235,59)"/><circle vector-effect="non-scaling-stroke" cx="836" cy="503" r="2" fill="rgb(255,235,59)"/><path d=" M 766 223 C 766 224.104 765.104 225 764 225 C 762.896 225 762 224.104 762 223 C 762 221.896 762.896 221 764 221 C 765.104 221 766 221.896 766 223 Z " fill="rgb(255,235,59)"/><path d=" M 540 225 C 540 226.104 539.104 227 538 227 C 536.896 227 536 226.104 536 225 C 536 223.896 536.896 223 538 223 C 539.104 223 540 223.896 540 225 Z " fill="rgb(255,235,59)"/><circle vector-effect="non-scaling-stroke" cx="698" cy="647" r="2" fill="rgb(255,235,59)"/><path d=" M 882 99 C 882 100.104 881.104 101 880 101 C 878.896 101 878 100.104 878 99 C 878 97.896 878.896 97 880 97 C 881.104 97 882 97.896 882 99 Z " fill="rgb(255,235,59)"/><path d=" M 656 101 C 656 102.104 655.104 103 654 103 C 652.896 103 652 102.104 652 101 C 652 99.896 652.896 99 654 99 C 655.104 99 656 99.896 656 101 Z " fill="rgb(255,235,59)"/><path d=" M 684 331 C 684 332.104 683.104 333 682 333 C 680.896 333 680 332.104 680 331 C 680 329.896 680.896 329 682 329 C 683.104 329 684 329.896 684 331 Z " fill="rgb(255,235,59)"/><path d=" M 463 110.5 C 463 111.604 462.104 112.5 461 112.5 C 459.896 112.5 459 111.604 459 110.5 C 459 109.396 459.896 108.5 461 108.5 C 462.104 108.5 463 109.396 463 110.5 Z " fill="rgb(255,235,59)"/><path d=" M 566 694 C 566 695.104 565.104 696 564 696 C 562.896 696 562 695.104 562 694 C 562 692.896 562.896 692 564 692 C 565.104 692 566 692.896 566 694 Z " fill="rgb(255,235,59)"/><circle vector-effect="non-scaling-stroke" cx="828" cy="99" r="2" fill="rgb(255,235,59)"/><circle vector-effect="non-scaling-stroke" cx="856" cy="329" r="2" fill="rgb(255,235,59)"/><circle vector-effect="non-scaling-stroke" cx="602" cy="101" r="2" fill="rgb(255,235,59)"/><circle vector-effect="non-scaling-stroke" cx="409" cy="110.5" r="2" fill="rgb(255,235,59)"/><circle vector-effect="non-scaling-stroke" cx="512" cy="694" r="2" fill="rgb(255,235,59)"/><path d=" M 752 647 C 752 648.104 751.104 649 750 649 C 748.896 649 748 648.104 748 647 C 748 645.896 748.896 645 750 645 C 751.104 645 752 645.896 752 647 Z " fill="rgb(255,235,59)"/><path d=" M 778 647 C 778 648.104 777.104 649 776 649 C 774.896 649 774 648.104 774 647 C 774 645.896 774.896 645 776 645 C 777.104 645 778 645.896 778 647 Z " fill="rgb(255,235,59)"/><path d=" M 77.5 197 C 77.5 198.104 76.604 199 75.5 199 C 74.396 199 73.5 198.104 73.5 197 C 73.5 195.896 74.396 195 75.5 195 C 76.604 195 77.5 195.896 77.5 197 Z " fill="rgb(255,235,59)"/><path d=" M 132.5 244 C 132.5 245.104 131.604 246 130.5 246 C 129.396 246 128.5 245.104 128.5 244 C 128.5 242.896 129.396 242 130.5 242 C 131.604 242 132.5 242.896 132.5 244 Z " fill="rgb(255,235,59)"/><circle vector-effect="non-scaling-stroke" cx="79.50000000000003" cy="245" r="3" fill="rgb(255,253,231)"/><circle vector-effect="non-scaling-stroke" cx="385.5" cy="701" r="3" fill="rgb(255,253,231)"/><circle vector-effect="non-scaling-stroke" cx="620" cy="47" r="3" fill="rgb(255,253,231)"/><circle vector-effect="non-scaling-stroke" cx="730" cy="713" r="3" fill="rgb(255,253,231)"/><circle vector-effect="non-scaling-stroke" cx="856" cy="437" r="3" fill="rgb(255,253,231)"/><circle vector-effect="non-scaling-stroke" cx="702" cy="123.5" r="3" fill="rgb(255,253,231)"/><circle vector-effect="non-scaling-stroke" cx="840" cy="647" r="3" fill="rgb(255,253,231)"/><circle vector-effect="non-scaling-stroke" cx="52" cy="71" r="3" fill="rgb(255,253,231)"/><circle vector-effect="non-scaling-stroke" cx="801.5" cy="79" r="3" fill="rgb(255,253,231)"/><circle vector-effect="non-scaling-stroke" cx="758" cy="531" r="3" fill="rgb(255,253,231)"/><circle vector-effect="non-scaling-stroke" cx="734" cy="279" r="3" fill="rgb(255,253,231)"/><circle vector-effect="non-scaling-stroke" cx="119" cy="25" r="3" fill="rgb(255,253,231)"/><circle vector-effect="non-scaling-stroke" cx="418.5" cy="27" r="3" fill="rgb(255,253,231)"/><circle vector-effect="non-scaling-stroke" cx="128.5" cy="507" r="3" fill="rgb(255,253,231)"/><circle vector-effect="non-scaling-stroke" cx="90" cy="655" r="3" fill="rgb(255,253,231)"/><circle vector-effect="non-scaling-stroke" cx="250" cy="639" r="3" fill="rgb(255,253,231)"/><circle vector-effect="non-scaling-stroke" cx="45.99999999999994" cy="349" r="3" fill="rgb(255,253,231)"/><circle vector-effect="non-scaling-stroke" cx="612" cy="673" r="3" fill="rgb(255,253,231)"/><circle vector-effect="non-scaling-stroke" cx="128.50000000000003" cy="214" r="2" fill="rgb(255,235,59)"/><circle vector-effect="non-scaling-stroke" cx="878" cy="69" r="2" fill="rgb(255,235,59)"/><circle vector-effect="non-scaling-stroke" cx="652" cy="71" r="2" fill="rgb(255,235,59)"/><circle vector-effect="non-scaling-stroke" cx="680" cy="301" r="2" fill="rgb(255,235,59)"/><circle vector-effect="non-scaling-stroke" cx="459" cy="80.5" r="2" fill="rgb(255,235,59)"/><circle vector-effect="non-scaling-stroke" cx="562" cy="668" r="2" fill="rgb(255,235,59)"/><path d=" M 702 677 C 702 678.104 701.104 679 700 679 C 698.896 679 698 678.104 698 677 C 698 675.896 698.896 675 700 675 C 701.104 675 702 675.896 702 677 Z " fill="rgb(255,235,59)"/><circle vector-effect="non-scaling-stroke" cx="898" cy="169" r="2" fill="rgb(255,235,59)"/><circle vector-effect="non-scaling-stroke" cx="672" cy="171" r="2" fill="rgb(255,235,59)"/><path d=" M 682 577 C 682 578.104 681.104 579 680 579 C 678.896 579 678 578.104 678 577 C 678 575.896 678.896 575 680 575 C 681.104 575 682 575.896 682 577 Z " fill="rgb(255,235,59)"/><circle vector-effect="non-scaling-stroke" cx="768" cy="86" r="2" fill="rgb(255,235,59)"/><circle vector-effect="non-scaling-stroke" cx="796" cy="316" r="2" fill="rgb(255,235,59)"/><circle vector-effect="non-scaling-stroke" cx="788" cy="353" r="2" fill="rgb(255,235,59)"/><circle vector-effect="non-scaling-stroke" cx="575" cy="95.5" r="2" fill="rgb(255,235,59)"/><circle vector-effect="non-scaling-stroke" cx="760" cy="56" r="2" fill="rgb(255,235,59)"/><circle vector-effect="non-scaling-stroke" cx="788" cy="286" r="2" fill="rgb(255,235,59)"/><circle vector-effect="non-scaling-stroke" cx="567" cy="65.5" r="2" fill="rgb(255,235,59)"/><circle vector-effect="non-scaling-stroke" cx="542" cy="88" r="2" fill="rgb(255,235,59)"/><circle vector-effect="non-scaling-stroke" cx="452" cy="685" r="2" fill="rgb(255,235,59)"/><path d=" M 812 660 C 812 661.104 811.104 662 810 662 C 808.896 662 808 661.104 808 660 C 808 658.896 808.896 658 810 658 C 811.104 658 812 658.896 812 660 Z " fill="rgb(255,235,59)"/><circle vector-effect="non-scaling-stroke" cx="865" cy="219" r="2" fill="rgb(255,235,59)"/><circle vector-effect="non-scaling-stroke" cx="639" cy="221" r="2" fill="rgb(255,235,59)"/><path d=" M 715 527 C 715 528.104 714.104 529 713 529 C 711.896 529 711 528.104 711 527 C 711 525.896 711.896 525 713 525 C 714.104 525 715 525.896 715 527 Z " fill="rgb(255,235,59)"/><circle vector-effect="non-scaling-stroke" cx="713" cy="211" r="2" fill="rgb(255,235,59)"/><circle vector-effect="non-scaling-stroke" cx="487" cy="213" r="2" fill="rgb(255,235,59)"/><path d=" M 867 535 C 867 536.104 866.104 537 865 537 C 863.896 537 863 536.104 863 535 C 863 533.896 863.896 533 865 533 C 866.104 533 867 533.896 867 535 Z " fill="rgb(255,235,59)"/><path d=" M 778 477 C 778 478.104 777.104 479 776 479 C 774.896 479 774 478.104 774 477 C 774 475.896 774.896 475 776 475 C 777.104 475 778 475.896 778 477 Z " fill="rgb(255,235,59)"/><path d=" M 754 505 C 754 506.104 753.104 507 752 507 C 750.896 507 750 506.104 750 505 C 750 503.896 750.896 503 752 503 C 753.104 503 754 503.896 754 505 Z " fill="rgb(255,235,59)"/><circle vector-effect="non-scaling-stroke" cx="786" cy="182" r="2" fill="rgb(255,235,59)"/><circle vector-effect="non-scaling-stroke" cx="830" cy="218" r="2" fill="rgb(255,235,59)"/><circle vector-effect="non-scaling-stroke" cx="560" cy="184" r="2" fill="rgb(255,235,59)"/><path d=" M 794 564 C 794 565.104 793.104 566 792 566 C 790.896 566 790 565.104 790 564 C 790 562.896 790.896 562 792 562 C 793.104 562 794 562.896 794 564 Z " fill="rgb(255,235,59)"/><path d=" M 723 568 C 723 569.104 722.104 570 721 570 C 719.896 570 719 569.104 719 568 C 719 566.896 719.896 566 721 566 C 722.104 566 723 566.896 723 568 Z " fill="rgb(255,235,59)"/><circle vector-effect="non-scaling-stroke" cx="847" cy="11" r="2" fill="rgb(255,235,59)"/><circle vector-effect="non-scaling-stroke" cx="621" cy="13" r="2" fill="rgb(255,235,59)"/><circle vector-effect="non-scaling-stroke" cx="531" cy="610" r="2" fill="rgb(255,235,59)"/><path d=" M 588 754 C 588 755.104 587.104 756 586 756 C 584.896 756 584 755.104 584 754 C 584 752.896 584.896 752 586 752 C 587.104 752 588 752.896 588 754 Z " fill="rgb(255,235,59)"/><circle vector-effect="non-scaling-stroke" cx="731" cy="135" r="2" fill="rgb(255,235,59)"/><circle vector-effect="non-scaling-stroke" cx="796.5" cy="13" r="2" fill="rgb(255,235,59)"/><circle vector-effect="non-scaling-stroke" cx="682" cy="111" r="2" fill="rgb(255,235,59)"/><circle vector-effect="non-scaling-stroke" cx="489" cy="120.5" r="2" fill="rgb(255,235,59)"/><circle vector-effect="non-scaling-stroke" cx="641" cy="732" r="2" fill="rgb(255,235,59)"/><circle vector-effect="non-scaling-stroke" cx="505" cy="137" r="2" fill="rgb(255,235,59)"/><circle vector-effect="non-scaling-stroke" cx="415" cy="734" r="2" fill="rgb(255,235,59)"/><path d=" M 849 611 C 849 612.104 848.104 613 847 613 C 845.896 613 845 612.104 845 611 C 845 609.896 845.896 609 847 609 C 848.104 609 849 609.896 849 611 Z " fill="rgb(255,235,59)"/><path d=" M 902 519 C 902 520.104 901.104 521 900 521 C 898.896 521 898 520.104 898 519 C 898 517.896 898.896 517 900 517 C 901.104 517 902 517.896 902 519 Z " fill="rgb(255,235,59)"/><path d=" M 885 623 C 885 624.104 884.104 625 883 625 C 881.896 625 881 624.104 881 623 C 881 621.896 881.896 621 883 621 C 884.104 621 885 621.896 885 623 Z " fill="rgb(255,235,59)"/><path d=" M 871 573 C 871 574.104 870.104 575 869 575 C 867.896 575 867 574.104 867 573 C 867 571.896 867.896 571 869 571 C 870.104 571 871 571.896 871 573 Z " fill="rgb(255,235,59)"/><circle vector-effect="non-scaling-stroke" cx="832" cy="357" r="2" fill="rgb(255,235,59)"/><path d=" M 759 429 C 759 430.104 758.104 431 757 431 C 755.896 431 755 430.104 755 429 C 755 427.896 755.896 427 757 427 C 758.104 427 759 427.896 759 429 Z " fill="rgb(255,235,59)"/><circle vector-effect="non-scaling-stroke" cx="882" cy="327" r="2" fill="rgb(255,235,59)"/><path d=" M 698 419 C 698 420.104 697.104 421 696 421 C 694.896 421 694 420.104 694 419 C 694 417.896 694.896 417 696 417 C 697.104 417 698 417.896 698 419 Z " fill="rgb(255,235,59)"/><circle vector-effect="non-scaling-stroke" cx="902" cy="427" r="2" fill="rgb(255,235,59)"/><path d=" M 678 319 C 678 320.104 677.104 321 676 321 C 674.896 321 674 320.104 674 319 C 674 317.896 674.896 317 676 317 C 677.104 317 678 317.896 678 319 Z " fill="rgb(255,235,59)"/><circle vector-effect="non-scaling-stroke" cx="772" cy="344" r="2" fill="rgb(255,235,59)"/><path d=" M 808 402 C 808 403.104 807.104 404 806 404 C 804.896 404 804 403.104 804 402 C 804 400.896 804.896 400 806 400 C 807.104 400 808 400.896 808 402 Z " fill="rgb(255,235,59)"/><circle vector-effect="non-scaling-stroke" cx="869" cy="477" r="2" fill="rgb(255,235,59)"/><path d=" M 711 269 C 711 270.104 710.104 271 709 271 C 707.896 271 707 270.104 707 269 C 707 267.896 707.896 267 709 267 C 710.104 267 711 267.896 711 269 Z " fill="rgb(255,235,59)"/><path d=" M 485 271 C 485 272.104 484.104 273 483 273 C 481.896 273 481 272.104 481 271 C 481 269.896 481.896 269 483 269 C 484.104 269 485 269.896 485 271 Z " fill="rgb(255,235,59)"/><circle vector-effect="non-scaling-stroke" cx="717" cy="469" r="2" fill="rgb(255,235,59)"/><path d=" M 863 277 C 863 278.104 862.104 279 861 279 C 859.896 279 859 278.104 859 277 C 859 275.896 859.896 275 861 275 C 862.104 275 863 275.896 863 277 Z " fill="rgb(255,235,59)"/><path d=" M 877 389 C 877 390.104 876.104 391 875 391 C 873.896 391 873 390.104 873 389 C 873 387.896 873.896 387 875 387 C 876.104 387 877 387.896 877 389 Z " fill="rgb(255,235,59)"/><path d=" M 637 279 C 637 280.104 636.104 281 635 281 C 633.896 281 633 280.104 633 279 C 633 277.896 633.896 277 635 277 C 636.104 277 637 277.896 637 279 Z " fill="rgb(255,235,59)"/><circle vector-effect="non-scaling-stroke" cx="790" cy="440" r="2" fill="rgb(255,235,59)"/><circle vector-effect="non-scaling-stroke" cx="820" cy="450" r="2" fill="rgb(255,235,59)"/><path d=" M 790 306 C 790 307.104 789.104 308 788 308 C 786.896 308 786 307.104 786 306 C 786 304.896 786.896 304 788 304 C 789.104 304 790 304.896 790 306 Z " fill="rgb(255,235,59)"/><circle vector-effect="non-scaling-stroke" cx="851" cy="269" r="2" fill="rgb(255,235,59)"/><circle vector-effect="non-scaling-stroke" cx="820" cy="248" r="2" fill="rgb(255,235,59)"/><circle vector-effect="non-scaling-stroke" cx="625" cy="271" r="2" fill="rgb(255,235,59)"/><path d=" M 729 477 C 729 478.104 728.104 479 727 479 C 725.896 479 725 478.104 725 477 C 725 475.896 725.896 475 727 475 C 728.104 475 729 475.896 729 477 Z " fill="rgb(255,235,59)"/><circle vector-effect="non-scaling-stroke" cx="735" cy="393" r="2" fill="rgb(255,235,59)"/><path d=" M 676 493 C 676 494.104 675.104 495 674 495 C 672.896 495 672 494.104 672 493 C 672 491.896 672.896 491 674 491 C 675.104 491 676 491.896 676 493 Z " fill="rgb(255,235,59)"/><path d=" M 652 521 C 652 522.104 651.104 523 650 523 C 648.896 523 648 522.104 648 521 C 648 519.896 648.896 519 650 519 C 651.104 519 652 519.896 652 521 Z " fill="rgb(255,235,59)"/><path d=" M 657 445 C 657 446.104 656.104 447 655 447 C 653.896 447 653 446.104 653 445 C 653 443.896 653.896 443 655 443 C 656.104 443 657 443.896 657 445 Z " fill="rgb(255,235,59)"/><path d=" M 596 435 C 596 436.104 595.104 437 594 437 C 592.896 437 592 436.104 592 435 C 592 433.896 592.896 433 594 433 C 595.104 433 596 433.896 596 435 Z " fill="rgb(255,235,59)"/><circle vector-effect="non-scaling-stroke" cx="615" cy="485" r="2" fill="rgb(255,235,59)"/><circle vector-effect="non-scaling-stroke" cx="688" cy="456" r="2" fill="rgb(255,235,59)"/><path d=" M 627 493 C 627 494.104 626.104 495 625 495 C 623.896 495 623 494.104 623 493 C 623 491.896 623.896 491 625 491 C 626.104 491 627 491.896 627 493 Z " fill="rgb(255,235,59)"/><circle vector-effect="non-scaling-stroke" cx="633" cy="409" r="2" fill="rgb(255,235,59)"/><path d=" M 845 353 C 845 354.104 844.104 355 843 355 C 841.896 355 841 354.104 841 353 C 841 351.896 841.896 351 843 351 C 844.104 351 845 351.896 845 353 Z " fill="rgb(255,235,59)"/><path d=" M 103 149 C 103 150.104 102.104 151 101 151 C 99.896 151 99 150.104 99 149 C 99 147.896 99.896 147 101 147 C 102.104 147 103 147.896 103 149 Z " fill="rgb(255,235,59)"/><path d=" M 327 119 C 327 120.104 326.104 121 325 121 C 323.896 121 323 120.104 323 119 C 323 117.896 323.896 117 325 117 C 326.104 117 327 117.896 327 119 Z " fill="rgb(255,235,59)"/><path d=" M 237 712 C 237 713.104 236.104 714 235 714 C 233.896 714 233 713.104 233 712 C 233 710.896 233.896 710 235 710 C 236.104 710 237 710.896 237 712 Z " fill="rgb(255,235,59)"/><circle vector-effect="non-scaling-stroke" cx="112.99999999999996" cy="625" r="2" fill="rgb(255,235,59)"/><circle vector-effect="non-scaling-stroke" cx="224.99999999999994" cy="581" r="2" fill="rgb(255,235,59)"/><path d=" M 53 179 C 53 180.104 52.104 181 51 181 C 49.896 181 49 180.104 49 179 C 49 177.896 49.896 177 51 177 C 52.104 177 53 177.896 53 179 Z " fill="rgb(255,235,59)"/><path d=" M 277 149 C 277 150.104 276.104 151 275 151 C 273.896 151 273 150.104 273 149 C 273 147.896 273.896 147 275 147 C 276.104 147 277 147.896 277 149 Z " fill="rgb(255,235,59)"/><path d=" M 187 746 C 187 747.104 186.104 748 185 748 C 183.896 748 183 747.104 183 746 C 183 744.896 183.896 744 185 744 C 186.104 744 187 744.896 187 746 Z " fill="rgb(255,235,59)"/><circle vector-effect="non-scaling-stroke" cx="162.99999999999997" cy="595" r="2" fill="rgb(255,235,59)"/><circle vector-effect="non-scaling-stroke" cx="275" cy="551" r="2" fill="rgb(255,235,59)"/><path d=" M 33 79 C 33 80.104 32.104 81 31 81 C 29.896 81 29 80.104 29 79 C 29 77.896 29.896 77 31 77 C 32.104 77 33 77.896 33 79 Z " fill="rgb(255,235,59)"/><path d=" M 257 49 C 257 50.104 256.104 51 255 51 C 253.896 51 253 50.104 253 49 C 253 47.896 253.896 47 255 47 C 256.104 47 257 47.896 257 49 Z " fill="rgb(255,235,59)"/><path d=" M 167 646 C 167 647.104 166.104 648 165 648 C 163.896 648 163 647.104 163 646 C 163 644.896 163.896 644 165 644 C 166.104 644 167 644.896 167 646 Z " fill="rgb(255,235,59)"/><path d=" M 279 602 C 279 603.104 278.104 604 277 604 C 275.896 604 275 603.104 275 602 C 275 600.896 275.896 600 277 600 C 278.104 600 279 600.896 279 602 Z " fill="rgb(255,235,59)"/><path d=" M 163 162 C 163 163.104 162.104 164 161 164 C 159.896 164 159 163.104 159 162 C 159 160.896 159.896 160 161 160 C 162.104 160 163 160.896 163 162 Z " fill="rgb(255,235,59)"/><path d=" M 387 132 C 387 133.104 386.104 134 385 134 C 383.896 134 383 133.104 383 132 C 383 130.896 383.896 130 385 130 C 386.104 130 387 130.896 387 132 Z " fill="rgb(255,235,59)"/><circle vector-effect="non-scaling-stroke" cx="52.99999999999997" cy="612" r="2" fill="rgb(255,235,59)"/><path d=" M 66 29 C 66 30.104 65.104 31 64 31 C 62.896 31 62 30.104 62 29 C 62 27.896 62.896 27 64 27 C 65.104 27 66 27.896 66 29 Z " fill="rgb(255,235,59)"/><path d=" M 290 -1 C 290 0.104 289.104 1 288 1 C 286.896 1 286 0.104 286 -1 C 286 -2.104 286.896 -3 288 -3 C 289.104 -3 290 -2.104 290 -1 Z " fill="rgb(255,235,59)"/><path d=" M 200 596 C 200 597.104 199.104 598 198 598 C 196.896 598 196 597.104 196 596 C 196 594.896 196.896 594 198 594 C 199.104 594 200 594.896 200 596 Z " fill="rgb(255,235,59)"/><circle vector-effect="non-scaling-stroke" cx="149.99999999999994" cy="745" r="2" fill="rgb(255,235,59)"/><path d=" M 218 37 C 218 38.104 217.104 39 216 39 C 214.896 39 214 38.104 214 37 C 214 35.896 214.896 35 216 35 C 217.104 35 218 35.896 218 37 Z " fill="rgb(255,235,59)"/><path d=" M 128 634 C 128 635.104 127.104 636 126 636 C 124.896 636 124 635.104 124 634 C 124 632.896 124.896 632 126 632 C 127.104 632 128 632.896 128 634 Z " fill="rgb(255,235,59)"/><path d=" M 240 590 C 240 591.104 239.104 592 238 592 C 236.896 592 236 591.104 236 590 C 236 588.896 236.896 588 238 588 C 239.104 588 240 588.896 240 590 Z " fill="rgb(255,235,59)"/><path d=" M 442 7 C 442 8.104 441.104 9 440 9 C 438.896 9 438 8.104 438 7 C 438 5.896 438.896 5 440 5 C 441.104 5 442 5.896 442 7 Z " fill="rgb(255,235,59)"/><path d=" M 352 604 C 352 605.104 351.104 606 350 606 C 348.896 606 348 605.104 348 604 C 348 602.896 348.896 602 350 602 C 351.104 602 352 602.896 352 604 Z " fill="rgb(255,235,59)"/><circle vector-effect="non-scaling-stroke" cx="-2.000000000000057" cy="737" r="2" fill="rgb(255,235,59)"/><path d=" M 145 66 C 145 67.104 144.104 68 143 68 C 141.896 68 141 67.104 141 66 C 141 64.896 141.896 64 143 64 C 144.104 64 145 64.896 145 66 Z " fill="rgb(255,235,59)"/><path d=" M 369 36 C 369 37.104 368.104 38 367 38 C 365.896 38 365 37.104 365 36 C 365 34.896 365.896 34 367 34 C 368.104 34 369 34.896 369 36 Z " fill="rgb(255,235,59)"/><path d=" M 731 40 C 731 41.104 730.104 42 729 42 C 727.896 42 727 41.104 727 40 C 727 38.896 727.896 38 729 38 C 730.104 38 731 38.896 731 40 Z " fill="rgb(255,235,59)"/><path d=" M 759 270 C 759 271.104 758.104 272 757 272 C 755.896 272 755 271.104 755 270 C 755 268.896 755.896 268 757 268 C 758.104 268 759 268.896 759 270 Z " fill="rgb(255,235,59)"/><path d=" M 743 295 C 743 296.104 742.104 297 741 297 C 739.896 297 739 296.104 739 295 C 739 293.896 739.896 293 741 293 C 742.104 293 743 293.896 743 295 Z " fill="rgb(255,235,59)"/><path d=" M 702 255 C 702 256.104 701.104 257 700 257 C 698.896 257 698 256.104 698 255 C 698 253.896 698.896 253 700 253 C 701.104 253 702 253.896 702 255 Z " fill="rgb(255,235,59)"/><path d=" M 855 282 C 855 283.104 854.104 284 853 284 C 851.896 284 851 283.104 851 282 C 851 280.896 851.896 280 853 280 C 854.104 280 855 280.896 855 282 Z " fill="rgb(255,235,59)"/><path d=" M 829 304 C 829 305.104 828.104 306 827 306 C 825.896 306 825 305.104 825 304 C 825 302.896 825.896 302 827 302 C 828.104 302 829 302.896 829 304 Z " fill="rgb(255,235,59)"/><path d=" M 766 223 C 766 224.104 765.104 225 764 225 C 762.896 225 762 224.104 762 223 C 762 221.896 762.896 221 764 221 C 765.104 221 766 221.896 766 223 Z " fill="rgb(255,235,59)"/><path d=" M 684 331 C 684 332.104 683.104 333 682 333 C 680.896 333 680 332.104 680 331 C 680 329.896 680.896 329 682 329 C 683.104 329 684 329.896 684 331 Z " fill="rgb(255,235,59)"/><circle vector-effect="non-scaling-stroke" cx="734" cy="279" r="3" fill="rgb(255,253,231)"/><circle vector-effect="non-scaling-stroke" cx="680" cy="301" r="2" fill="rgb(255,235,59)"/><circle vector-effect="non-scaling-stroke" cx="796" cy="316" r="2" fill="rgb(255,235,59)"/><circle vector-effect="non-scaling-stroke" cx="788" cy="353" r="2" fill="rgb(255,235,59)"/><circle vector-effect="non-scaling-stroke" cx="788" cy="286" r="2" fill="rgb(255,235,59)"/><circle vector-effect="non-scaling-stroke" cx="713" cy="211" r="2" fill="rgb(255,235,59)"/><circle vector-effect="non-scaling-stroke" cx="830" cy="218" r="2" fill="rgb(255,235,59)"/><circle vector-effect="non-scaling-stroke" cx="832" cy="357" r="2" fill="rgb(255,235,59)"/><circle vector-effect="non-scaling-stroke" cx="772" cy="344" r="2" fill="rgb(255,235,59)"/><path d=" M 711 269 C 711 270.104 710.104 271 709 271 C 707.896 271 707 270.104 707 269 C 707 267.896 707.896 267 709 267 C 710.104 267 711 267.896 711 269 Z " fill="rgb(255,235,59)"/><path d=" M 790 306 C 790 307.104 789.104 308 788 308 C 786.896 308 786 307.104 786 306 C 786 304.896 786.896 304 788 304 C 789.104 304 790 304.896 790 306 Z " fill="rgb(255,235,59)"/><circle vector-effect="non-scaling-stroke" cx="851" cy="269" r="2" fill="rgb(255,235,59)"/><circle vector-effect="non-scaling-stroke" cx="820" cy="248" r="2" fill="rgb(255,235,59)"/><path d=" M 845 353 C 845 354.104 844.104 355 843 355 C 841.896 355 841 354.104 841 353 C 841 351.896 841.896 351 843 351 C 844.104 351 845 351.896 845 353 Z " fill="rgb(255,235,59)"/><path d=" M 759 270 C 759 271.104 758.104 272 757 272 C 755.896 272 755 271.104 755 270 C 755 268.896 755.896 268 757 268 C 758.104 268 759 268.896 759 270 Z " fill="rgb(255,235,59)"/><path d=" M 538 49.5 C 538 50.604 537.104 51.5 536 51.5 C 534.896 51.5 534 50.604 534 49.5 C 534 48.396 534.896 47.5 536 47.5 C 537.104 47.5 538 48.396 538 49.5 Z " fill="rgb(255,235,59)"/><path d=" M 542 382.5 C 542 383.604 541.104 384.5 540 384.5 C 538.896 384.5 538 383.604 538 382.5 C 538 381.396 538.896 380.5 540 380.5 C 541.104 380.5 542 381.396 542 382.5 Z " fill="rgb(255,235,59)"/><path d=" M 492 412.5 C 492 413.604 491.104 414.5 490 414.5 C 488.896 414.5 488 413.604 488 412.5 C 488 411.396 488.896 410.5 490 410.5 C 491.104 410.5 492 411.396 492 412.5 Z " fill="rgb(255,235,59)"/><path d=" M 505 320 C 505 321.104 504.104 322 503 322 C 501.896 322 501 321.104 501 320 C 501 318.896 501.896 318 503 318 C 504.104 318 505 318.896 505 320 Z " fill="rgb(255,235,59)"/><path d=" M 472 312.5 C 472 313.604 471.104 314.5 470 314.5 C 468.896 314.5 468 313.604 468 312.5 C 468 311.396 468.896 310.5 470 310.5 C 471.104 310.5 472 311.396 472 312.5 Z " fill="rgb(255,235,59)"/><path d=" M 602 395.5 C 602 396.604 601.104 397.5 600 397.5 C 598.896 397.5 598 396.604 598 395.5 C 598 394.396 598.896 393.5 600 393.5 C 601.104 393.5 602 394.396 602 395.5 Z " fill="rgb(255,235,59)"/><path d=" M 584 299.5 C 584 300.604 583.104 301.5 582 301.5 C 580.896 301.5 580 300.604 580 299.5 C 580 298.396 580.896 297.5 582 297.5 C 583.104 297.5 584 298.396 584 299.5 Z " fill="rgb(255,235,59)"/><path d=" M 639 346.5 C 639 347.604 638.104 348.5 637 348.5 C 635.896 348.5 635 347.604 635 346.5 C 635 345.396 635.896 344.5 637 344.5 C 638.104 344.5 639 345.396 639 346.5 Z " fill="rgb(255,235,59)"/><circle vector-effect="non-scaling-stroke" cx="585" cy="346.5" r="2" fill="rgb(255,235,59)"/><circle vector-effect="non-scaling-stroke" cx="603" cy="292.5" r="3" fill="rgb(255,253,231)"/><circle vector-effect="non-scaling-stroke" cx="635" cy="316.5" r="2" fill="rgb(255,235,59)"/><circle vector-effect="non-scaling-stroke" cx="558" cy="341" r="2" fill="rgb(255,235,59)"/><circle vector-effect="non-scaling-stroke" cx="550" cy="311" r="2" fill="rgb(255,235,59)"/><circle vector-effect="non-scaling-stroke" cx="525" cy="333.5" r="2" fill="rgb(255,235,59)"/><circle vector-effect="non-scaling-stroke" cx="472" cy="366" r="2" fill="rgb(255,235,59)"/><circle vector-effect="non-scaling-stroke" cx="488" cy="382.5" r="2" fill="rgb(255,235,59)"/><path d=" M 521 295 C 521 296.104 520.104 297 519 297 C 517.896 297 517 296.104 517 295 C 517 293.896 517.896 293 519 293 C 520.104 293 521 293.896 521 295 Z " fill="rgb(255,235,59)"/><path d=" M 279 633 C 279 634.104 278.104 635 277 635 C 275.896 635 275 634.104 275 633 C 275 631.896 275.896 631 277 631 C 278.104 631 279 631.896 279 633 Z " fill="rgb(255,235,59)"/><circle vector-effect="non-scaling-stroke" cx="70.99999999999994" cy="708" r="2" fill="rgb(255,235,59)"/><path d=" M 308 207 C 308 208.104 307.104 209 306 209 C 304.896 209 304 208.104 304 207 C 304 205.896 304.896 205 306 205 C 307.104 205 308 205.896 308 207 Z " fill="rgb(255,235,59)"/><circle vector-effect="non-scaling-stroke" cx="131.99999999999997" cy="537" r="2" fill="rgb(255,235,59)"/><path d=" M 200 113 C 200 114.104 199.104 115 198 115 C 196.896 115 196 114.104 196 113 C 196 111.896 196.896 111 198 111 C 199.104 111 200 111.896 200 113 Z " fill="rgb(255,235,59)"/><path d=" M 110 710 C 110 711.104 109.104 712 108 712 C 106.896 712 106 711.104 106 710 C 106 708.896 106.896 708 108 708 C 109.104 708 110 708.896 110 710 Z " fill="rgb(255,235,59)"/><path d=" M 424 83 C 424 84.104 423.104 85 422 85 C 420.896 85 420 84.104 420 83 C 420 81.896 420.896 81 422 81 C 423.104 81 424 81.896 424 83 Z " fill="rgb(255,235,59)"/><path d=" M 334 680 C 334 681.104 333.104 682 332 682 C 330.896 682 330 681.104 330 680 C 330 678.896 330.896 678 332 678 C 333.104 678 334 678.896 334 680 Z " fill="rgb(255,235,59)"/><circle vector-effect="non-scaling-stroke" cx="15.999999999999972" cy="661" r="2" fill="rgb(255,235,59)"/><path d=" M 70 661 C 70 662.104 69.104 663 68 663 C 66.896 663 66 662.104 66 661 C 66 659.896 66.896 659 68 659 C 69.104 659 70 659.896 70 661 Z " fill="rgb(255,235,59)"/><circle vector-effect="non-scaling-stroke" cx="146.00000000000003" cy="113" r="2" fill="rgb(255,235,59)"/><circle vector-effect="non-scaling-stroke" cx="370" cy="83" r="2" fill="rgb(255,235,59)"/><circle vector-effect="non-scaling-stroke" cx="280" cy="680" r="2" fill="rgb(255,235,59)"/><path d=" M 20 691 C 20 692.104 19.104 693 18 693 C 16.896 693 16 692.104 16 691 C 16 689.896 16.896 689 18 689 C 19.104 689 20 689.896 20 691 Z " fill="rgb(255,235,59)"/><circle vector-effect="non-scaling-stroke" cx="196.00000000000003" cy="83" r="2" fill="rgb(255,235,59)"/><circle vector-effect="non-scaling-stroke" cx="420" cy="53" r="2" fill="rgb(255,235,59)"/><circle vector-effect="non-scaling-stroke" cx="330" cy="650" r="2" fill="rgb(255,235,59)"/><path d=" M 0 591 C 0 592.104 -0.896 593 -2 593 C -3.104 593 -4 592.104 -4 591 C -4 589.896 -3.104 589 -2 589 C -0.896 589 0 589.896 0 591 Z " fill="rgb(255,235,59)"/><circle vector-effect="non-scaling-stroke" cx="216.00000000000003" cy="183" r="2" fill="rgb(255,235,59)"/><circle vector-effect="non-scaling-stroke" cx="440" cy="153" r="2" fill="rgb(255,235,59)"/><path d=" M 130 674 C 130 675.104 129.104 676 128 676 C 126.896 676 126 675.104 126 674 C 126 672.896 126.896 672 128 672 C 129.104 672 130 672.896 130 674 Z " fill="rgb(255,235,59)"/><circle vector-effect="non-scaling-stroke" cx="86.00000000000003" cy="100" r="2" fill="rgb(255,235,59)"/><circle vector-effect="non-scaling-stroke" cx="310" cy="70" r="2" fill="rgb(255,235,59)"/><circle vector-effect="non-scaling-stroke" cx="220" cy="667" r="2" fill="rgb(255,235,59)"/><path d=" M 33 541 C 33 542.104 32.104 543 31 543 C 29.896 543 29 542.104 29 541 C 29 539.896 29.896 539 31 539 C 32.104 539 33 539.896 33 541 Z " fill="rgb(255,235,59)"/><circle vector-effect="non-scaling-stroke" cx="183" cy="233" r="2" fill="rgb(255,235,59)"/><circle vector-effect="non-scaling-stroke" cx="407" cy="203" r="2" fill="rgb(255,235,59)"/><path d=" M 425 326 C 425 327.104 424.104 328 423 328 C 421.896 328 421 327.104 421 326 C 421 324.896 421.896 324 423 324 C 424.104 324 425 324.896 425 326 Z " fill="rgb(255,235,59)"/><path d=" M 375 356 C 375 357.104 374.104 358 373 358 C 371.896 358 371 357.104 371 356 C 371 354.896 371.896 354 373 354 C 374.104 354 375 354.896 375 356 Z " fill="rgb(255,235,59)"/><path d=" M 388 263.5 C 388 264.604 387.104 265.5 386 265.5 C 384.896 265.5 384 264.604 384 263.5 C 384 262.396 384.896 261.5 386 261.5 C 387.104 261.5 388 262.396 388 263.5 Z " fill="rgb(255,235,59)"/><path d=" M 355 256 C 355 257.104 354.104 258 353 258 C 351.896 258 351 257.104 351 256 C 351 254.896 351.896 254 353 254 C 354.104 254 355 254.896 355 256 Z " fill="rgb(255,235,59)"/><path d=" M 406 414 C 406 415.104 405.104 416 404 416 C 402.896 416 402 415.104 402 414 C 402 412.896 402.896 412 404 412 C 405.104 412 406 412.896 406 414 Z " fill="rgb(255,235,59)"/><path d=" M 329 299.5 C 329 300.604 328.104 301.5 327 301.5 C 325.896 301.5 325 300.604 325 299.5 C 325 298.396 325.896 297.5 327 297.5 C 328.104 297.5 329 298.396 329 299.5 Z " fill="rgb(255,235,59)"/><circle vector-effect="non-scaling-stroke" cx="275" cy="299.49999999999994" r="2" fill="rgb(255,235,59)"/><circle vector-effect="non-scaling-stroke" cx="325" cy="269.49999999999994" r="2" fill="rgb(255,235,59)"/><circle vector-effect="non-scaling-stroke" cx="441" cy="284.49999999999994" r="2" fill="rgb(255,235,59)"/><circle vector-effect="non-scaling-stroke" cx="433" cy="254.49999999999994" r="2" fill="rgb(255,235,59)"/><circle vector-effect="non-scaling-stroke" cx="408" cy="276.99999999999994" r="2" fill="rgb(255,235,59)"/><circle vector-effect="non-scaling-stroke" cx="353" cy="401.99999999999994" r="2" fill="rgb(255,235,59)"/><circle vector-effect="non-scaling-stroke" cx="426" cy="372.99999999999994" r="2" fill="rgb(255,235,59)"/><circle vector-effect="non-scaling-stroke" cx="355" cy="309.49999999999994" r="2" fill="rgb(255,235,59)"/><circle vector-effect="non-scaling-stroke" cx="371" cy="325.99999999999994" r="2" fill="rgb(255,235,59)"/><path d=" M 351 460 C 351 461.104 350.104 462 349 462 C 347.896 462 347 461.104 347 460 C 347 458.896 347.896 458 349 458 C 350.104 458 351 458.896 351 460 Z " fill="rgb(255,235,59)"/><path d=" M 253 321 C 253 322.104 252.104 323 251 323 C 249.896 323 249 322.104 249 321 C 249 319.896 249.896 319 251 319 C 252.104 319 253 319.896 253 321 Z " fill="rgb(255,235,59)"/><path d=" M 290 272 C 290 273.104 289.104 274 288 274 C 286.896 274 286 273.104 286 272 C 286 270.896 286.896 270 288 270 C 289.104 270 290 270.896 290 272 Z " fill="rgb(255,235,59)"/><circle vector-effect="non-scaling-stroke" cx="236" cy="271.99999999999994" r="2" fill="rgb(255,235,59)"/><path d=" M 339.5 479.25 C 339.5 480.354 338.604 481.25 337.5 481.25 C 336.396 481.25 335.5 480.354 335.5 479.25 C 335.5 478.146 336.396 477.25 337.5 477.25 C 338.604 477.25 339.5 478.146 339.5 479.25 Z " fill="rgb(255,235,59)"/><circle vector-effect="non-scaling-stroke" cx="285.5" cy="479.25" r="2" fill="rgb(255,235,59)"/><circle vector-effect="non-scaling-stroke" cx="335.5" cy="449.25" r="2" fill="rgb(255,235,59)"/><path d=" M 263.5 500.75 C 263.5 501.854 262.604 502.75 261.5 502.75 C 260.396 502.75 259.5 501.854 259.5 500.75 C 259.5 499.646 260.396 498.75 261.5 498.75 C 262.604 498.75 263.5 499.646 263.5 500.75 Z " fill="rgb(255,235,59)"/><path d=" M 300.5 451.75 C 300.5 452.854 299.604 453.75 298.5 453.75 C 297.396 453.75 296.5 452.854 296.5 451.75 C 296.5 450.646 297.396 449.75 298.5 449.75 C 299.604 449.75 300.5 450.646 300.5 451.75 Z " fill="rgb(255,235,59)"/><circle vector-effect="non-scaling-stroke" cx="246.5" cy="451.75" r="2" fill="rgb(255,235,59)"/><circle vector-effect="non-scaling-stroke" cx="286" cy="241.99999999999994" r="2" fill="rgb(255,235,59)"/><circle vector-effect="non-scaling-stroke" cx="306" cy="341.99999999999994" r="2" fill="rgb(255,235,59)"/><circle vector-effect="non-scaling-stroke" cx="273" cy="391.99999999999994" r="2" fill="rgb(255,235,59)"/><path d=" M 185 549 C 185 550.104 184.104 551 183 551 C 181.896 551 181 550.104 181 549 C 181 547.896 181.896 547 183 547 C 184.104 547 185 547.896 185 549 Z " fill="rgb(255,235,59)"/><circle vector-effect="non-scaling-stroke" cx="31" cy="225" r="2" fill="rgb(255,235,59)"/><circle vector-effect="non-scaling-stroke" cx="255" cy="195" r="2" fill="rgb(255,235,59)"/><path d=" M 112 578 C 112 579.104 111.104 580 110 580 C 108.896 580 108 579.104 108 578 C 108 576.896 108.896 576 110 576 C 111.104 576 112 576.896 112 578 Z " fill="rgb(255,235,59)"/><path d=" M 224 534 C 224 535.104 223.104 536 222 536 C 220.896 536 220 535.104 220 534 C 220 532.896 220.896 532 222 532 C 223.104 532 224 532.896 224 534 Z " fill="rgb(255,235,59)"/><circle vector-effect="non-scaling-stroke" cx="104.00000000000001" cy="196" r="2" fill="rgb(255,235,59)"/><circle vector-effect="non-scaling-stroke" cx="328" cy="166" r="2" fill="rgb(255,235,59)"/><path d=" M 51 749 C 51 750.104 50.104 751 49 751 C 47.896 751 47 750.104 47 749 C 47 747.896 47.896 747 49 747 C 50.104 747 51 747.896 51 749 Z " fill="rgb(255,235,59)"/><circle vector-effect="non-scaling-stroke" cx="165.00000000000003" cy="25" r="2" fill="rgb(255,235,59)"/><circle vector-effect="non-scaling-stroke" cx="389" cy="-5" r="2" fill="rgb(255,235,59)"/><circle vector-effect="non-scaling-stroke" cx="299" cy="592" r="2" fill="rgb(255,235,59)"/><path d=" M 167 625 C 167 626.104 166.104 627 165 627 C 163.896 627 163 626.104 163 625 C 163 623.896 163.896 623 165 623 C 166.104 623 167 623.896 167 625 Z " fill="rgb(255,235,59)"/><path d=" M 181 702 C 181 703.104 180.104 704 179 704 C 177.896 704 177 703.104 177 702 C 177 700.896 177.896 700 179 700 C 180.104 700 181 700.896 181 702 Z " fill="rgb(255,235,59)"/><circle vector-effect="non-scaling-stroke" cx="421" cy="721" r="2" fill="rgb(255,235,59)"/><circle vector-effect="non-scaling-stroke" cx="647" cy="719" r="2" fill="rgb(255,235,59)"/><circle vector-effect="non-scaling-stroke" cx="462" cy="761" r="2" fill="rgb(255,235,59)"/><path d=" M 293 689 C 293 690.104 292.104 691 291 691 C 289.896 691 289 690.104 289 689 C 289 687.896 289.896 687 291 687 C 292.104 687 293 687.896 293 689 Z " fill="rgb(255,235,59)"/><circle vector-effect="non-scaling-stroke" cx="535" cy="732" r="2" fill="rgb(255,235,59)"/><path d=" M 348 736 C 348 737.104 347.104 738 346 738 C 344.896 738 344 737.104 344 736 C 344 734.896 344.896 734 346 734 C 347.104 734 348 734.896 348 736 Z " fill="rgb(255,235,59)"/><circle vector-effect="non-scaling-stroke" cx="294" cy="736" r="2" fill="rgb(255,235,59)"/><path d=" M 484 711 C 484 712.104 483.104 713 482 713 C 480.896 713 480 712.104 480 711 C 480 709.896 480.896 709 482 709 C 483.104 709 484 709.896 484 711 Z " fill="rgb(255,235,59)"/><circle vector-effect="non-scaling-stroke" cx="344" cy="702" r="2" fill="rgb(255,235,59)"/><path d=" M 594 698 C 594 699.104 593.104 700 592 700 C 590.896 700 590 699.104 590 698 C 590 696.896 590.896 696 592 696 C 593.104 696 594 696.896 594 698 Z " fill="rgb(255,235,59)"/><circle vector-effect="non-scaling-stroke" cx="234" cy="723" r="2" fill="rgb(255,235,59)"/><path d=" M 933 758 C 933 759.104 932.104 760 931 760 C 929.896 760 929 759.104 929 758 C 929 756.896 929.896 756 931 756 C 932.104 756 933 756.896 933 758 Z " fill="rgb(255,235,59)"/><circle vector-effect="non-scaling-stroke" cx="879" cy="737" r="2" fill="rgb(255,235,59)"/><circle vector-effect="non-scaling-stroke" cx="918" cy="749" r="2" fill="rgb(255,235,59)"/><circle vector-effect="non-scaling-stroke" cx="767" cy="750" r="2" fill="rgb(255,235,59)"/><circle vector-effect="non-scaling-stroke" cx="712" cy="703" r="2" fill="rgb(255,235,59)"/><circle vector-effect="non-scaling-stroke" cx="976" cy="722" r="2" fill="rgb(255,235,59)"/><path d=" M 766 703 C 766 704.104 765.104 705 764 705 C 762.896 705 762 704.104 762 703 C 762 701.896 762.896 701 764 701 C 765.104 701 766 701.896 766 703 Z " fill="rgb(255,235,59)"/><path d=" M 716 733 C 716 734.104 715.104 735 714 735 C 712.896 735 712 734.104 712 733 C 712 731.896 712.896 731 714 731 C 715.104 731 716 731.896 716 733 Z " fill="rgb(255,235,59)"/><circle vector-effect="non-scaling-stroke" cx="916" cy="709" r="2" fill="rgb(255,235,59)"/><path d=" M 826 716 C 826 717.104 825.104 718 824 718 C 822.896 718 822 717.104 822 716 C 822 714.896 822.896 714 824 714 C 825.104 714 826 714.896 826 716 Z " fill="rgb(255,235,59)"/><circle vector-effect="non-scaling-stroke" cx="879" cy="758" r="2" fill="rgb(255,235,59)"/><path d=" M 279 581 C 279 582.104 278.104 583 277 583 C 275.896 583 275 582.104 275 581 C 275 579.896 275.896 579 277 579 C 278.104 579 279 579.896 279 581 Z " fill="rgb(255,235,59)"/><path d=" M 639 541 C 639 542.104 638.104 543 637 543 C 635.896 543 635 542.104 635 541 C 635 539.896 635.896 539 637 539 C 638.104 539 639 539.896 639 541 Z " fill="rgb(255,235,59)"/><circle vector-effect="non-scaling-stroke" cx="625.5" cy="578" r="3" fill="rgb(255,253,231)"/><circle vector-effect="non-scaling-stroke" cx="490" cy="516" r="3" fill="rgb(255,253,231)"/><path d=" M 477 589 C 477 590.104 476.104 591 475 591 C 473.896 591 473 590.104 473 589 C 473 587.896 473.896 587 475 587 C 476.104 587 477 587.896 477 589 Z " fill="rgb(255,235,59)"/><circle vector-effect="non-scaling-stroke" cx="464.99999999999994" cy="458" r="2" fill="rgb(255,235,59)"/><circle vector-effect="non-scaling-stroke" cx="515" cy="428" r="2" fill="rgb(255,235,59)"/><path d=" M 519 479 C 519 480.104 518.104 481 517 481 C 515.896 481 515 480.104 515 479 C 515 477.896 515.896 477 517 477 C 518.104 477 519 477.896 519 479 Z " fill="rgb(255,235,59)"/><path d=" M 440 473 C 440 474.104 439.104 475 438 475 C 436.896 475 436 474.104 436 473 C 436 471.896 436.896 471 438 471 C 439.104 471 440 471.896 440 473 Z " fill="rgb(255,235,59)"/><path d=" M 480 467 C 480 468.104 479.104 469 478 469 C 476.896 469 476 468.104 476 467 C 476 465.896 476.896 465 478 465 C 479.104 465 480 465.896 480 467 Z " fill="rgb(255,235,59)"/><path d=" M 592 481 C 592 482.104 591.104 483 590 483 C 588.896 483 588 482.104 588 481 C 588 479.896 588.896 479 590 479 C 591.104 479 592 479.896 592 481 Z " fill="rgb(255,235,59)"/><path d=" M 519 510 C 519 511.104 518.104 512 517 512 C 515.896 512 515 511.104 515 510 C 515 508.896 515.896 508 517 508 C 518.104 508 519 508.896 519 510 Z " fill="rgb(255,235,59)"/><path d=" M 574 557 C 574 558.104 573.104 559 572 559 C 570.896 559 570 558.104 570 557 C 570 555.896 570.896 555 572 555 C 573.104 555 574 555.896 574 557 Z " fill="rgb(255,235,59)"/><circle vector-effect="non-scaling-stroke" cx="520" cy="557" r="2" fill="rgb(255,235,59)"/><circle vector-effect="non-scaling-stroke" cx="570" cy="527" r="2" fill="rgb(255,235,59)"/><circle vector-effect="non-scaling-stroke" cx="460" cy="544" r="2" fill="rgb(255,235,59)"/><path d=" M 425 426 C 425 427.104 424.104 428 423 428 C 421.896 428 421 427.104 421 426 C 421 424.896 421.896 424 423 424 C 424.104 424 425 424.896 425 426 Z " fill="rgb(255,235,59)"/><path d=" M 464 411 C 464 412.104 463.104 413 462 413 C 460.896 413 460 412.104 460 411 C 460 409.896 460.896 409 462 409 C 463.104 409 464 409.896 464 411 Z " fill="rgb(255,235,59)"/><circle vector-effect="non-scaling-stroke" cx="539" cy="469" r="2" fill="rgb(255,235,59)"/><path d=" M 421 579 C 421 580.104 420.104 581 419 581 C 417.896 581 417 580.104 417 579 C 417 577.896 417.896 577 419 577 C 420.104 577 421 577.896 421 579 Z " fill="rgb(255,235,59)"/><path d=" M 533 566 C 533 567.104 532.104 568 531 568 C 529.896 568 529 567.104 529 566 C 529 564.896 529.896 564 531 564 C 532.104 564 533 564.896 533 566 Z " fill="rgb(255,235,59)"/><circle vector-effect="non-scaling-stroke" cx="584" cy="579" r="2" fill="rgb(255,235,59)"/><path d=" M 519 458 C 519 459.104 518.104 460 517 460 C 515.896 460 515 459.104 515 458 C 515 456.896 515.896 456 517 456 C 518.104 456 519 456.896 519 458 Z " fill="rgb(255,235,59)"/><circle vector-effect="non-scaling-stroke" cx="49.00000000000003" cy="149" r="2" fill="rgb(255,235,59)"/><circle vector-effect="non-scaling-stroke" cx="273" cy="119" r="2" fill="rgb(255,235,59)"/><path d=" M 66 403 C 66 404.104 65.104 405 64 405 C 62.896 405 62 404.104 62 403 C 62 401.896 62.896 401 64 401 C 65.104 401 66 401.896 66 403 Z " fill="rgb(255,235,59)"/><circle vector-effect="non-scaling-stroke" cx="161.00000000000003" cy="421.00000000000006" r="2" fill="rgb(255,235,59)"/><path d=" M 16 433 C 16 434.104 15.104 435 14 435 C 12.896 435 12 434.104 12 433 C 12 431.896 12.896 431 14 431 C 15.104 431 16 431.896 16 433 Z " fill="rgb(255,235,59)"/><circle vector-effect="non-scaling-stroke" cx="200" cy="340.99999999999994" r="2" fill="rgb(255,235,59)"/><path d=" M -4 333 C -4 334.104 -4.896 335 -6 335 C -7.104 335 -8 334.104 -8 333 C -8 331.896 -7.104 331 -6 331 C -4.896 331 -4 331.896 -4 333 Z " fill="rgb(255,235,59)"/><circle vector-effect="non-scaling-stroke" cx="220" cy="440.99999999999994" r="2" fill="rgb(255,235,59)"/><path d=" M 126 416 C 126 417.104 125.104 418 124 418 C 122.896 418 122 417.104 122 416 C 122 414.896 122.896 414 124 414 C 125.104 414 126 414.896 126 416 Z " fill="rgb(255,235,59)"/><circle vector-effect="non-scaling-stroke" cx="90" cy="358" r="2" fill="rgb(255,235,59)"/><path d=" M 29 283 C 29 284.104 28.104 285 27 285 C 25.896 285 25 284.104 25 283 C 25 281.896 25.896 281 27 281 C 28.104 281 29 281.896 29 283 Z " fill="rgb(255,235,59)"/><circle vector-effect="non-scaling-stroke" cx="186.99999999999997" cy="490.99999999999994" r="2" fill="rgb(255,235,59)"/><path d=" M 181 291 C 181 292.104 180.104 293 179 293 C 177.896 293 177 292.104 177 291 C 177 289.896 177.896 289 179 289 C 180.104 289 181 289.896 181 291 Z " fill="rgb(255,235,59)"/><circle vector-effect="non-scaling-stroke" cx="34.99999999999997" cy="483" r="2" fill="rgb(255,235,59)"/><path d=" M 108 320 C 108 321.104 107.104 322 106 322 C 104.896 322 104 321.104 104 320 C 104 318.896 104.896 318 106 318 C 107.104 318 108 318.896 108 320 Z " fill="rgb(255,235,59)"/><circle vector-effect="non-scaling-stroke" cx="107.99999999999999" cy="454" r="2" fill="rgb(255,235,59)"/><path d=" M 47 491 C 47 492.104 46.104 493 45 493 C 43.896 493 43 492.104 43 491 C 43 489.896 43.896 489 45 489 C 46.104 489 47 489.896 47 491 Z " fill="rgb(255,235,59)"/><circle vector-effect="non-scaling-stroke" cx="169" cy="283" r="2" fill="rgb(255,235,59)"/><path d=" M 163 367 C 163 368.104 162.104 369 161 369 C 159.896 369 159 368.104 159 367 C 159 365.896 159.896 365 161 365 C 162.104 365 163 365.896 163 367 Z " fill="rgb(255,235,59)"/><circle vector-effect="non-scaling-stroke" cx="357.5" cy="552" r="2" fill="rgb(255,235,59)"/><circle vector-effect="non-scaling-stroke" cx="416.5" cy="572" r="2" fill="rgb(255,235,59)"/><path d=" M 359.5 498 C 359.5 499.104 358.604 500 357.5 500 C 356.396 500 355.5 499.104 355.5 498 C 355.5 496.896 356.396 496 357.5 496 C 358.604 496 359.5 496.896 359.5 498 Z " fill="rgb(255,235,59)"/><circle vector-effect="non-scaling-stroke" cx="53" cy="407" r="2" fill="rgb(255,235,59)"/></g></g></svg>